<?xml version="1.0" encoding="UTF-8" standalone="no"?>
<!-- Created with Inkscape (http://www.inkscape.org/) -->

<svg
   width="480"
   height="480"
   viewBox="0 0 127 127"
   version="1.1"
   id="svg1"
   inkscape:version="1.4.2 (ebf0e940, 2025-05-08)"
   xml:space="preserve"
   sodipodi:docname="arrowww.svg"
   xmlns:inkscape="http://www.inkscape.org/namespaces/inkscape"
   xmlns:sodipodi="http://sodipodi.sourceforge.net/DTD/sodipodi-0.dtd"
   xmlns="http://www.w3.org/2000/svg"
   xmlns:svg="http://www.w3.org/2000/svg"><sodipodi:namedview
     id="namedview1"
     pagecolor="#ffffff"
     bordercolor="#000000"
     borderopacity="0.25"
     inkscape:showpageshadow="2"
     inkscape:pageopacity="0.0"
     inkscape:pagecheckerboard="0"
     inkscape:deskcolor="#d1d1d1"
     inkscape:document-units="px"
     inkscape:zoom="15.994535"
     inkscape:cx="-296.41375"
     inkscape:cy="479.66384"
     inkscape:window-width="2240"
     inkscape:window-height="1235"
     inkscape:window-x="0"
     inkscape:window-y="25"
     inkscape:window-maximized="0"
     inkscape:current-layer="g2" /><defs
     id="defs1"><inkscape:path-effect
       effect="powerclip"
       message=""
       id="path-effect72811"
       is_visible="true"
       lpeversion="1"
       inverse="true"
       flatten="false"
       hide_clip="false" /><clipPath
       clipPathUnits="userSpaceOnUse"
       id="clipPath72811"><path
         d="m 23.617187,70.710937 c -0.263445,-0.03074 -0.528313,0.04443 -0.736328,0.208985 -0.432956,0.342557 -0.506395,0.971164 -0.164062,1.404297 0,0 8.550534,10.793794 21.851562,8.033203 0.541138,-0.112459 0.888426,-0.642576 0.775391,-1.183594 C 45.231259,78.633618 44.702459,78.28662 44.162109,78.398437 32.04317,80.91369 24.285156,71.083984 24.285156,71.083984 24.120751,70.876009 23.88049,70.741828 23.617187,70.710937 Z"
         style="display:block;fill:#ffffff;stroke-linecap:round;stroke-linejoin:round;paint-order:stroke fill markers"
         id="path72811"
         sodipodi:nodetypes="cccccccc" /></clipPath><clipPath
       clipPathUnits="userSpaceOnUse"
       id="clipPath72811-0"><path
         d="m 23.617187,70.710937 c -0.263445,-0.03074 -0.528313,0.04443 -0.736328,0.208985 -0.432956,0.342557 -0.506395,0.971164 -0.164062,1.404297 0,0 8.550534,10.793794 21.851562,8.033203 0.541138,-0.112459 0.888426,-0.642576 0.775391,-1.183594 C 45.231259,78.633618 44.702459,78.28662 44.162109,78.398437 32.04317,80.91369 24.285156,71.083984 24.285156,71.083984 24.120751,70.876009 23.88049,70.741828 23.617187,70.710937 Z"
         style="display:none;fill:#ffffff;stroke-linecap:round;stroke-linejoin:round;paint-order:stroke fill markers"
         id="path72811-0"
         sodipodi:nodetypes="cccccccc" /><path
         id="lpe_path-effect72811"
         style="fill:#ffffff;stroke-linecap:round;stroke-linejoin:round;paint-order:stroke fill markers"
         class="powerclip"
         d="M 7.6969952,9.2550174 H 94.744497 V 91.586479 H 7.6969952 Z M 23.617187,70.710937 c -0.263445,-0.03074 -0.528313,0.04443 -0.736328,0.208985 -0.432956,0.342557 -0.506395,0.971164 -0.164062,1.404297 0,0 8.550534,10.793794 21.851562,8.033203 0.541138,-0.112459 0.888426,-0.642576 0.775391,-1.183594 C 45.231259,78.633618 44.702459,78.28662 44.162109,78.398437 32.04317,80.91369 24.285156,71.083984 24.285156,71.083984 24.120751,70.876009 23.88049,70.741828 23.617187,70.710937 Z" /></clipPath><inkscape:path-effect
       effect="powerclip"
       message=""
       id="path-effect72811-3"
       is_visible="true"
       lpeversion="1"
       inverse="true"
       flatten="false"
       hide_clip="false" /><clipPath
       clipPathUnits="userSpaceOnUse"
       id="clipath_lpe_path-effect72811-3"><path
         d="m 23.617187,70.710937 c -0.263445,-0.03074 -0.528313,0.04443 -0.736328,0.208985 -0.432956,0.342557 -0.506395,0.971164 -0.164062,1.404297 0,0 8.550534,10.793794 21.851562,8.033203 0.541138,-0.112459 0.888426,-0.642576 0.775391,-1.183594 C 45.231259,78.633618 44.702459,78.28662 44.162109,78.398437 32.04317,80.91369 24.285156,71.083984 24.285156,71.083984 24.120751,70.876009 23.88049,70.741828 23.617187,70.710937 Z"
         style="display:block;fill:#ffffff;stroke-linecap:round;stroke-linejoin:round;paint-order:stroke fill markers"
         id="path72812"
         sodipodi:nodetypes="cccccccc" /></clipPath></defs><g
     inkscape:label="Layer 1"
     inkscape:groupmode="layer"
     id="layer1"><rect
       style="fill:#832121;stroke:#000000;stroke-width:0.0264583;stroke-linecap:round"
       id="rect1"
       width="26.458334"
       height="26.458334"
       x="23.768379"
       y="57.643002"
       rx="1.3229166"
       ry="1.3229166" /><path
       id="path72817"
       style="display:inline;fill:#ffffff;fill-opacity:1;stroke-width:0.264583;stroke-linecap:round;stroke-linejoin:round;paint-order:stroke fill markers"
       d="m 46.007086,61.553589 c -0.03088,-0.0028 -0.06201,-2.02e-4 -0.09198,0.0078 l -2.293917,0.601513 -2.293916,0.601514 c -0.19781,0.05139 -0.265169,0.298082 -0.120923,0.442867 l 1.245918,1.259354 c -0.744877,0.558056 -1.389795,1.27909 -2.083076,1.929598 l -6.636809,6.227529 -3.200321,-7.188192 c 2.800297,-0.399598 6.31191,-0.940513 8.611877,1.150318 l 1.885157,-1.768885 c -2.603637,-2.759564 -6.444828,-2.347527 -9.832992,-2.058272 -0.319387,0.02727 -0.663677,0.08119 -0.981852,0.02119 -0.345488,-0.06515 -0.578991,-0.37812 -0.940511,-0.445968 -0.752196,-0.141167 -1.54217,0.521725 -1.525488,1.289327 0.02077,0.955849 0.911944,0.996481 1.276407,1.675867 1.034597,1.92856 1.788091,4.041095 2.704228,6.02909 0.238496,0.517529 0.461213,1.041052 0.699699,1.558561 0.08478,0.18397 0.277945,0.459437 0.22841,0.670243 -0.08483,0.360987 -1.127073,1.25745 -1.484147,1.297079 -0.429617,0.04768 -0.969427,-0.142448 -1.375627,0.02945 -0.597289,0.252772 -1.19847,1.079875 -1.671733,1.523938 l 1.63556,0.09043 0.680062,0.09973 0.05684,0.685747 0.02274,1.6769 c 0.462396,-0.433868 1.305353,-0.968879 1.582849,-1.539958 0.204879,-0.421637 0.04504,-0.989931 0.12454,-1.441773 0.06292,-0.357577 0.988978,-1.294998 1.354956,-1.366841 0.231292,-0.0454 0.518499,0.186074 0.711585,0.290422 0.547947,0.296129 1.08721,0.60672 1.635042,0.902787 1.894585,1.023892 3.773715,2.074827 5.666838,3.101619 0.645508,0.350114 0.814803,1.162335 1.629358,1.274858 0.737175,0.101833 1.464812,-0.55928 1.458826,-1.299146 -0.0032,-0.401524 -0.266284,-0.622774 -0.370004,-0.975651 -0.09458,-0.321784 -0.0034,-0.716897 0.04341,-1.04128 0.216685,-1.502732 0.608536,-2.955007 0.576709,-4.488098 -0.04484,-2.160113 -0.890037,-3.863512 -2.024166,-5.633247 l -1.923913,1.805574 c 2.209994,2.568295 0.963124,5.946025 0.669209,8.898165 -2.321275,-1.276075 -4.838953,-2.408522 -7.039364,-3.881416 l 7.304464,-6.853846 c 0.41873,-0.392895 0.986518,-0.824425 1.45004,-1.317749 l 1.171505,1.183907 c 0.143269,0.14487 0.389644,0.08026 0.443384,-0.116272 l 0.6258,-2.287702 0.625801,-2.2872 c 0.03416,-0.124006 -0.0258,-0.254614 -0.14211,-0.309541 -0.02782,-0.01317 -0.05772,-0.02139 -0.08837,-0.02429 z"
       sodipodi:nodetypes="cccccccccccsssscssssscccccsssccsssssscccccccccccc" /></g><path
     id="path77"
     style="display:inline;fill:#000000;fill-opacity:1;stroke-width:0.264582;stroke-linecap:round;stroke-linejoin:round;paint-order:stroke fill markers;stroke:#000000;stroke-opacity:1"
     d="m 131.93321,8.242545 -15.78509,7.788552 a 3.373418,3.373418 0 0 0 -1.84559,2.537927 L 113.09552,26.8278 80.301945,59.621211 66.77135,60.026599 C 64.90875,60.082449 63.44416,61.637558 63.5,63.5 c 0.0558,1.862441 1.61209,3.326234 3.47341,3.271348 l 11.287955,-0.338304 -0.33815,11.287951 c -0.0558,1.862441 1.40891,3.417552 3.27135,3.4734 q 0.0514,0.0016 0.10303,0.0016 c 1.81655,0 3.31597,-1.445017 3.37069,-3.272954 l 0.40539,-13.530745 32.793085,-32.792928 8.25878,-1.207498 a 3.373418,3.373418 0 0 0 2.53776,-1.845591 l 7.78855,-15.785253 C 137.87392,9.879177 134.81762,6.81983 131.93321,8.24254 m -8.53706,15.728922 -3.13044,0.457546 0.45754,-3.130442 5.27647,-2.603406 z M 72.78493,68.436065 57.91605,68.881414 c -1.8626,0.05569 -3.3272,1.610959 -3.27135,3.473401 0.0558,1.862441 1.61192,3.326716 3.4734,3.271349 l 11.28795,-0.338305 -0.33814,11.288272 c -0.057,1.89823 1.46492,3.475006 3.37422,3.475006 1.81654,0 3.315965,-1.445017 3.370695,-3.272954 l 0.44535,-14.868717 c 0.0594,-1.968683 -1.5702,-3.540163 -3.473245,-3.473401"
     sodipodi:nodetypes="cccccccccccsssscssssscccccsssccsssssscccccccccccc" /><g
     id="g2"
     transform="matrix(0.26458333,0,0,-0.26458333,69.472382,29.877348)">
	<path
   id="polygon1"
   style="fill:#715c3a;fill-opacity:1;stroke:#000000;stroke-width:0.999996;stroke-opacity:1"
   d="m 118.99894,45.54934 -14.9172,-5.83882 -0.9012,-7.20402 -16.733931,-16.73174 -8.72708,0.03046 v -1.866846 h -1.83465 v -1.834597 h -1.83464 V 10.26918 h -1.83464 V 8.4345831 h -1.83464 v -3.669198 h 7.33857 v -7.338389 h 3.66928 v 1.83459701 h 1.83464 V 1.0961911 h 1.83464 v 2.751896 h 1.83464 v 1.834597 h 1.83464 V 12.99599 l 16.802011,16.679785 7.6324,0.95313 z"
   inkscape:label="arrrooooow" /><path
   id="polygon1-0"
   style="fill:#715c3a;fill-opacity:1;stroke:#000000;stroke-width:0.999996;stroke-opacity:1"
   d="m -213.45481,112.04009 -14.9172,-5.83882 -0.9012,-7.20402 -16.73393,-16.73174 -8.72708,0.03046 v -1.866846 h -1.83465 v -1.834597 h -1.83464 V 76.75993 h -1.83464 v -1.834597 h -1.83464 v -3.669198 h 7.33857 v -7.338389 h 3.66928 v 1.834597 h 1.83464 v 1.834598 h 1.83464 v 2.751896 h 1.83464 v 1.834597 h 1.83464 v 7.313306 l 16.80201,16.679785 7.6324,0.95313 z"
   inkscape:label="arrrooooow" />
	
	
<g
   id="g1"
   transform="matrix(1,0,0,-1,-494.57882,451.92743)"><path
     style="fill:#fc6e51"
     d="M 512.001,10.75 A 10.73,10.73 0 0 0 508.876,3.125 10.7,10.7 0 0 0 501.251,0 c -2.656,0.031 -66.046,1.391 -143.67,78.999 -4.156,4.172 -4.156,10.922 0,15.078 l 60.344,60.342 c 4.156,4.156 10.922,4.156 15.077,0 C 510.626,76.796 511.97,13.406 512.001,10.75"
     id="path1" /><path
     style="fill:#ffce54"
     d="m 124.211,479.123 26.984,-13.499 a 10.8,10.8 0 0 0 2.773,-2 L 373.331,244.246 a 10.4,10.4 0 0 0 2.609,-4.25 l 13.625,-42.14 43.437,-43.437 -75.421,-75.42 -43.42,43.437 -42.156,13.625 a 10.8,10.8 0 0 0 -4.25,2.609 L 48.384,358.048 a 10.9,10.9 0 0 0 -2,2.766 l -13.492,26.983 -26.984,13.5 a 10.66,10.66 0 0 0 -5.758,7.828 10.65,10.65 0 0 0 2.984,9.25 l 90.499,90.498 a 10.64,10.64 0 0 0 9.25,3 10.74,10.74 0 0 0 7.836,-5.766 z"
     id="path2" /><path
     style="fill:#f6bb42"
     d="m 5.908,401.297 a 10.66,10.66 0 0 0 -5.758,7.828 10.65,10.65 0 0 0 2.984,9.25 l 90.499,90.498 a 10.64,10.64 0 0 0 9.25,3 10.74,10.74 0 0 0 7.836,-5.766 l 13.492,-26.984 -91.319,-91.326 z"
     id="path3" /><path
     style="fill:#e9573f"
     d="m 397.972,43.968 70.061,70.061 a 300,300 0 0 0 12.281,-17.89 L 415.863,31.687 a 301,301 0 0 0 -17.891,12.281"
     id="path4" /><path
     style="fill:#434a54"
     d="m 63.47,448.547 c -4.164,-4.156 -10.922,-4.172 -15.086,0 l -7.539,7.546 15.078,15.078 7.547,-7.547 c 4.164,-4.156 4.164,-10.906 0,-15.077"
     id="path5" /><path
     style="opacity:0.1"
     d="m 314.161,122.435 -42.156,13.625 49.812,-6.203 z m 75.264,75.265 -13.625,42.155 6.203,-49.811 z"
     id="path6" /><path
     style="opacity:0.1;fill:#ffffff"
     d="m 124.211,479.123 26.984,-13.499 a 10.8,10.8 0 0 0 2.773,-2 L 373.331,244.246 a 10.4,10.4 0 0 0 2.609,-4.25 l 13.625,-42.14 43.437,-43.437 C 510.626,76.795 511.97,13.406 512.001,10.75 A 10.73,10.73 0 0 0 508.876,3.125 10.7,10.7 0 0 0 501.251,0 c -0.375,0.016 -1.969,0.031 -4.641,0.312 -1.625,16.219 -12.047,72.374 -78.686,139.014 l -43.438,43.437 -13.625,42.14 a 10.84,10.84 0 0 1 -2.609,4.266 l -219.37,219.378 a 10.7,10.7 0 0 1 -2.773,1.999 l -26.984,13.484 -13.492,26.999 a 10.65,10.65 0 0 1 -7.836,5.75 10.68,10.68 0 0 1 -9.25,-2.984 l 15.086,15.078 a 10.64,10.64 0 0 0 9.25,3 10.74,10.74 0 0 0 7.836,-5.766 z"
     id="path7" /></g><path
   id="path1-5"
   style="fill:none;fill-opacity:1;stroke-width:0.999998;stroke:#000000;stroke-opacity:1"
   d="m -526.87587,-337.4487 c -0.0341,-3.9e-4 -0.18239,-0.006 -0.41104,-0.0277 -0.0224,-0.002 -0.0179,-2.9e-4 -0.0422,-0.003 -8e-5,-7.8e-4 -2.9e-4,-0.002 -3.9e-4,-0.003 -1.55673,-0.15279 -7.03895,-1.14477 -13.57694,-7.68141 l -4.2403,-4.24183 -4.1169,-1.33059 c -0.15633,-0.0514 -0.29847,-0.13867 -0.41504,-0.25483 l -21.42333,-21.4241 c -0.0789,-0.0792 -0.14479,-0.17036 -0.19531,-0.27008 l -1.31762,-2.63505 -2.63524,-1.31838 c -0.084,-0.042 -0.16199,-0.0952 -0.23175,-0.15812 -0.14031,-0.12647 -0.24356,-0.28874 -0.2987,-0.46941 -0.0137,-0.0449 -0.0243,-0.0906 -0.0318,-0.13695 -0.015,-0.0928 -0.0174,-0.18717 -0.007,-0.28058 v -1.9e-4 c 0.0258,-0.23551 0.13126,-0.45515 0.29889,-0.62257 l 7.38691,-7.38691 c -0.008,0.007 -0.015,0.0143 -0.0223,0.0216 l 1.47345,-1.4725 c 0.0331,-0.0333 0.0684,-0.0644 0.10567,-0.0929 h 2e-4 c 0.0747,-0.0571 0.15685,-0.10383 0.24414,-0.13885 0.0873,-0.035 0.17891,-0.058 0.27238,-0.0683 0.0467,-0.005 0.0938,-0.007 0.14076,-0.006 0.047,0.001 0.0938,0.006 0.14019,0.0132 0.23374,0.0388 0.44746,0.15556 0.60636,0.33131 0.0315,0.0349 0.0607,0.0718 0.0872,0.11063 0.0266,0.0387 0.0505,0.0792 0.0717,0.12112 l 1.31742,2.63524 2.63524,1.31819 c 0.0667,0.0335 0.12957,0.074 0.18769,0.12074 0.029,0.0234 0.0568,0.0483 0.0832,0.0746 l 21.42257,21.42411 c 0.0584,0.0576 0.10967,0.12212 0.15259,0.19207 0.043,0.0699 0.0773,0.14479 0.10224,0.22297 l 1.33059,4.11537 4.24164,4.24164 1.9e-4,1.9e-4 c 2.84267,2.84267 4.63787,5.48995 5.77155,7.7022 v 2e-4 c 1.13367,2.21228 1.6059,3.9896 1.80267,5.09252 0.13118,0.73529 0.14,1.17076 0.14076,1.2356 0.001,0.23155 -0.0743,0.45698 -0.21477,0.64107 -0.0278,0.0365 -0.058,0.0711 -0.0904,0.10357 -0.19752,0.19706 -0.46564,0.30695 -0.74464,0.30518 z"
   inkscape:label="bullat"
   sodipodi:nodetypes="scccccccccccsssssccccssssscsscccsccscccsssscscss" /></g></svg>
