<?xml version="1.0" encoding="UTF-8" standalone="no"?>
<!-- Created with Inkscape (http://www.inkscape.org/) -->

<svg
   width="480"
   height="480"
   viewBox="0 0 127 127"
   version="1.1"
   id="svg1"
   inkscape:version="1.4.2 (ebf0e940, 2025-05-08)"
   xml:space="preserve"
   sodipodi:docname="arrowww.svg"
   xmlns:inkscape="http://www.inkscape.org/namespaces/inkscape"
   xmlns:sodipodi="http://sodipodi.sourceforge.net/DTD/sodipodi-0.dtd"
   xmlns="http://www.w3.org/2000/svg"
   xmlns:svg="http://www.w3.org/2000/svg"><sodipodi:namedview
     id="namedview1"
     pagecolor="#ffffff"
     bordercolor="#000000"
     borderopacity="0.25"
     inkscape:showpageshadow="2"
     inkscape:pageopacity="0.0"
     inkscape:pagecheckerboard="0"
     inkscape:deskcolor="#d1d1d1"
     inkscape:document-units="px"
     inkscape:zoom="0.99965844"
     inkscape:cx="-243.08303"
     inkscape:cy="15.005125"
     inkscape:window-width="2240"
     inkscape:window-height="1235"
     inkscape:window-x="0"
     inkscape:window-y="25"
     inkscape:window-maximized="0"
     inkscape:current-layer="svg1" /><defs
     id="defs1"><inkscape:path-effect
       effect="powerclip"
       message=""
       id="path-effect72811"
       is_visible="true"
       lpeversion="1"
       inverse="true"
       flatten="false"
       hide_clip="false" /><clipPath
       clipPathUnits="userSpaceOnUse"
       id="clipPath72811"><path
         d="m 23.617187,70.710937 c -0.263445,-0.03074 -0.528313,0.04443 -0.736328,0.208985 -0.432956,0.342557 -0.506395,0.971164 -0.164062,1.404297 0,0 8.550534,10.793794 21.851562,8.033203 0.541138,-0.112459 0.888426,-0.642576 0.775391,-1.183594 C 45.231259,78.633618 44.702459,78.28662 44.162109,78.398437 32.04317,80.91369 24.285156,71.083984 24.285156,71.083984 24.120751,70.876009 23.88049,70.741828 23.617187,70.710937 Z"
         style="display:block;fill:#ffffff;stroke-linecap:round;stroke-linejoin:round;paint-order:stroke fill markers"
         id="path72811"
         sodipodi:nodetypes="cccccccc" /></clipPath><clipPath
       clipPathUnits="userSpaceOnUse"
       id="clipPath72811-0"><path
         d="m 23.617187,70.710937 c -0.263445,-0.03074 -0.528313,0.04443 -0.736328,0.208985 -0.432956,0.342557 -0.506395,0.971164 -0.164062,1.404297 0,0 8.550534,10.793794 21.851562,8.033203 0.541138,-0.112459 0.888426,-0.642576 0.775391,-1.183594 C 45.231259,78.633618 44.702459,78.28662 44.162109,78.398437 32.04317,80.91369 24.285156,71.083984 24.285156,71.083984 24.120751,70.876009 23.88049,70.741828 23.617187,70.710937 Z"
         style="display:none;fill:#ffffff;stroke-linecap:round;stroke-linejoin:round;paint-order:stroke fill markers"
         id="path72811-0"
         sodipodi:nodetypes="cccccccc" /><path
         id="lpe_path-effect72811"
         style="fill:#ffffff;stroke-linecap:round;stroke-linejoin:round;paint-order:stroke fill markers"
         class="powerclip"
         d="M 7.6969952,9.2550174 H 94.744497 V 91.586479 H 7.6969952 Z M 23.617187,70.710937 c -0.263445,-0.03074 -0.528313,0.04443 -0.736328,0.208985 -0.432956,0.342557 -0.506395,0.971164 -0.164062,1.404297 0,0 8.550534,10.793794 21.851562,8.033203 0.541138,-0.112459 0.888426,-0.642576 0.775391,-1.183594 C 45.231259,78.633618 44.702459,78.28662 44.162109,78.398437 32.04317,80.91369 24.285156,71.083984 24.285156,71.083984 24.120751,70.876009 23.88049,70.741828 23.617187,70.710937 Z" /></clipPath><inkscape:path-effect
       effect="powerclip"
       message=""
       id="path-effect72811-3"
       is_visible="true"
       lpeversion="1"
       inverse="true"
       flatten="false"
       hide_clip="false" /><clipPath
       clipPathUnits="userSpaceOnUse"
       id="clipath_lpe_path-effect72811-3"><path
         d="m 23.617187,70.710937 c -0.263445,-0.03074 -0.528313,0.04443 -0.736328,0.208985 -0.432956,0.342557 -0.506395,0.971164 -0.164062,1.404297 0,0 8.550534,10.793794 21.851562,8.033203 0.541138,-0.112459 0.888426,-0.642576 0.775391,-1.183594 C 45.231259,78.633618 44.702459,78.28662 44.162109,78.398437 32.04317,80.91369 24.285156,71.083984 24.285156,71.083984 24.120751,70.876009 23.88049,70.741828 23.617187,70.710937 Z"
         style="display:block;fill:#ffffff;stroke-linecap:round;stroke-linejoin:round;paint-order:stroke fill markers"
         id="path72812"
         sodipodi:nodetypes="cccccccc" /></clipPath></defs><path
     d="M 6.34519,2.4241795 C 6.3769136,2.2655538 6.2500194,2.0751993 6.0913752,2.0751993 L 4.2830272,1.821395 3.458162,0.17166747 C 3.4264385,0.10821773 3.3947149,0.07649153 3.3312678,0.04476534 3.17265,-0.05041059 2.9822823,0.01303915 2.8871117,0.17166747 L 2.0939701,1.821395 0.28562206,2.0751993 q -0.14276919,0 -0.19036774,0.095176 c -0.12689419,0.1269023 -0.12689419,0.3172567 0,0.4441588 L 1.3959991,3.8835558 1.0787636,5.6919118 c 0,0.06345 0,0.1269021 0.031724,0.1903519 0.095171,0.1586283 0.2855119,0.222078 0.4441561,0.1269021 L 3.17265,5.1525771 4.7906304,6.0091658 c 0.031724,0.031727 0.095197,0.031727 0.1586441,0.031727 h 0.063447 C 5.1713393,6.0091658 5.2982599,5.8505375 5.2665364,5.6601856 L 4.9492745,3.8518296 6.2500194,2.5828079 C 6.3134665,2.5510816 6.34519,2.4876319 6.34519,2.4241795"
     id="path1-8"
     style="stroke-width:8.81948" /><g
     inkscape:label="Layer 1"
     inkscape:groupmode="layer"
     id="layer1"><rect
       style="fill:#832121;stroke:#000000;stroke-width:0.0264583;stroke-linecap:round"
       id="rect1"
       width="26.458334"
       height="26.458334"
       x="284.20734"
       y="340.31454"
       rx="1.3229166"
       ry="1.3229166" /><path
       id="path72817"
       style="display:inline;fill:#ffffff;fill-opacity:1;stroke-width:0.264583;stroke-linecap:round;stroke-linejoin:round;paint-order:stroke fill markers"
       d="m 306.44604,344.22514 c -0.0309,-0.003 -0.062,-2e-4 -0.092,0.008 l -2.29392,0.60151 -2.29391,0.60152 c -0.19781,0.0514 -0.26517,0.29808 -0.12092,0.44286 l 1.24591,1.25936 c -0.74487,0.55805 -1.38979,1.27909 -2.08307,1.92959 l -6.63681,6.22753 -3.20032,-7.18819 c 2.80029,-0.3996 6.31191,-0.94051 8.61187,1.15032 l 1.88516,-1.76889 c -2.60364,-2.75956 -6.44483,-2.34752 -9.83299,-2.05827 -0.31939,0.0273 -0.66368,0.0812 -0.98185,0.0212 -0.34549,-0.0651 -0.57899,-0.37812 -0.94051,-0.44597 -0.7522,-0.14116 -1.54217,0.52173 -1.52549,1.28933 0.0208,0.95585 0.91194,0.99648 1.27641,1.67587 1.03459,1.92856 1.78809,4.04109 2.70422,6.02909 0.2385,0.51753 0.46122,1.04105 0.6997,1.55856 0.0848,0.18397 0.27795,0.45944 0.22841,0.67024 -0.0848,0.36099 -1.12707,1.25745 -1.48414,1.29708 -0.42962,0.0477 -0.96943,-0.14245 -1.37563,0.0294 -0.59729,0.25277 -1.19847,1.07988 -1.67173,1.52394 l 1.63556,0.0904 0.68006,0.0997 0.0568,0.68575 0.0227,1.6769 c 0.46239,-0.43387 1.30535,-0.96888 1.58285,-1.53996 0.20488,-0.42164 0.045,-0.98993 0.12454,-1.44177 0.0629,-0.35758 0.98897,-1.295 1.35495,-1.36685 0.23129,-0.0454 0.5185,0.18608 0.71159,0.29043 0.54794,0.29613 1.08721,0.60672 1.63504,0.90278 1.89458,1.0239 3.77371,2.07483 5.66684,3.10162 0.64551,0.35012 0.8148,1.16234 1.62936,1.27486 0.73717,0.10183 1.46481,-0.55928 1.45882,-1.29915 -0.003,-0.40152 -0.26628,-0.62277 -0.37,-0.97565 -0.0946,-0.32178 -0.003,-0.71689 0.0434,-1.04128 0.21668,-1.50273 0.60853,-2.955 0.57671,-4.48809 -0.0448,-2.16012 -0.89004,-3.86352 -2.02417,-5.63325 l -1.92391,1.80557 c 2.20999,2.5683 0.96312,5.94603 0.66921,8.89817 -2.32128,-1.27608 -4.83896,-2.40852 -7.03937,-3.88142 l 7.30447,-6.85384 c 0.41873,-0.3929 0.98651,-0.82443 1.45004,-1.31775 l 1.1715,1.1839 c 0.14327,0.14487 0.38965,0.0803 0.44339,-0.11627 l 0.6258,-2.2877 0.6258,-2.2872 c 0.0342,-0.12401 -0.0258,-0.25461 -0.14211,-0.30954 -0.0278,-0.0132 -0.0577,-0.0214 -0.0884,-0.0243 z"
       sodipodi:nodetypes="cccccccccccsssscssssscccccsssccsssssscccccccccccc" /></g><path
     id="path77"
     style="display:inline;fill:#000000;fill-opacity:1;stroke:#000000;stroke-width:0.264582;stroke-linecap:round;stroke-linejoin:round;stroke-opacity:1;paint-order:stroke fill markers"
     d="m 392.37217,290.91409 -15.78509,7.78856 a 3.373418,3.373418 0 0 0 -1.84559,2.53792 l -1.20701,8.25878 -32.79358,32.79341 -13.53059,0.40539 c -1.8626,0.0559 -3.32719,1.61096 -3.27135,3.4734 0.0558,1.86244 1.61209,3.32623 3.47341,3.27135 l 11.28795,-0.33831 -0.33815,11.28795 c -0.0558,1.86245 1.40891,3.41756 3.27135,3.4734 q 0.0514,0.002 0.10303,0.002 c 1.81655,0 3.31597,-1.44501 3.37069,-3.27295 l 0.40539,-13.53074 32.79309,-32.79293 8.25878,-1.2075 a 3.373418,3.373418 0 0 0 2.53776,-1.84559 l 7.78855,-15.78525 c 1.42207,-2.88185 -1.63423,-5.9412 -4.51864,-4.51849 m -8.53706,15.72892 -3.13044,0.45755 0.45754,-3.13044 5.27647,-2.60341 z m -50.61122,44.4646 -14.86888,0.44535 c -1.8626,0.0557 -3.3272,1.61096 -3.27135,3.4734 0.0558,1.86245 1.61192,3.32672 3.4734,3.27135 l 11.28795,-0.3383 -0.33814,11.28827 c -0.057,1.89823 1.46492,3.47501 3.37422,3.47501 1.81654,0 3.31596,-1.44502 3.37069,-3.27296 l 0.44535,-14.86871 c 0.0594,-1.96869 -1.5702,-3.54017 -3.47324,-3.47341"
     sodipodi:nodetypes="cccccccccccsssscssssscccccsssccsssssscccccccccccc" /><g
     id="g2"
     transform="matrix(0.26458333,0,0,-0.26458333,69.472382,29.877348)">
	<path
   id="polygon1"
   style="fill:#715c3a;fill-opacity:1;stroke:#000000;stroke-width:0.999996;stroke-opacity:1"
   d="m 1103.3352,-1022.8156 -14.9172,-5.8388 -0.9012,-7.204 -16.734,-16.7318 -8.727,0.031 v -1.8668 h -1.8347 v -1.8346 h -1.8346 v -1.8346 h -1.8347 v -1.8346 h -1.8346 v -3.6692 h 7.3386 v -7.3384 h 3.6692 v 1.8346 h 1.8347 v 1.8346 h 1.8346 v 2.7519 h 1.8347 v 1.8346 h 1.8346 v 7.3133 l 16.802,16.6798 7.6324,0.9531 z"
   inkscape:label="arrrooooow" /><path
   id="polygon1-0"
   style="fill:#715c3a;fill-opacity:1;stroke:#000000;stroke-width:0.999996;stroke-opacity:1"
   d="m 770.88141,-956.32483 -14.9172,-5.83882 -0.9012,-7.20402 -16.73393,-16.73174 -8.72708,0.0305 v -1.86685 h -1.83465 v -1.8346 h -1.83464 v -1.83459 h -1.83464 v -1.8346 h -1.83464 v -3.6692 h 7.33857 v -7.33841 h 3.66928 v 1.8346 h 1.83464 v 1.8346 h 1.83464 v 2.75191 h 1.83464 v 1.8346 h 1.83464 v 7.31331 l 16.80201,16.67978 7.6324,0.95313 z"
   inkscape:label="arrrooooow" />
	
	
<g
   id="g1"
   transform="matrix(1,0,0,-1,489.7574,-616.43749)"><path
     style="fill:#fc6e51"
     d="M 512.001,10.75 A 10.73,10.73 0 0 0 508.876,3.125 10.7,10.7 0 0 0 501.251,0 c -2.656,0.031 -66.046,1.391 -143.67,78.999 -4.156,4.172 -4.156,10.922 0,15.078 l 60.344,60.342 c 4.156,4.156 10.922,4.156 15.077,0 C 510.626,76.796 511.97,13.406 512.001,10.75"
     id="path1" /><path
     style="fill:#ffce54"
     d="m 124.211,479.123 26.984,-13.499 a 10.8,10.8 0 0 0 2.773,-2 L 373.331,244.246 a 10.4,10.4 0 0 0 2.609,-4.25 l 13.625,-42.14 43.437,-43.437 -75.421,-75.42 -43.42,43.437 -42.156,13.625 a 10.8,10.8 0 0 0 -4.25,2.609 L 48.384,358.048 a 10.9,10.9 0 0 0 -2,2.766 l -13.492,26.983 -26.984,13.5 a 10.66,10.66 0 0 0 -5.758,7.828 10.65,10.65 0 0 0 2.984,9.25 l 90.499,90.498 a 10.64,10.64 0 0 0 9.25,3 10.74,10.74 0 0 0 7.836,-5.766 z"
     id="path2" /><path
     style="fill:#f6bb42"
     d="m 5.908,401.297 a 10.66,10.66 0 0 0 -5.758,7.828 10.65,10.65 0 0 0 2.984,9.25 l 90.499,90.498 a 10.64,10.64 0 0 0 9.25,3 10.74,10.74 0 0 0 7.836,-5.766 l 13.492,-26.984 -91.319,-91.326 z"
     id="path3" /><path
     style="fill:#e9573f"
     d="m 397.972,43.968 70.061,70.061 a 300,300 0 0 0 12.281,-17.89 L 415.863,31.687 a 301,301 0 0 0 -17.891,12.281"
     id="path4" /><path
     style="fill:#434a54"
     d="m 63.47,448.547 c -4.164,-4.156 -10.922,-4.172 -15.086,0 l -7.539,7.546 15.078,15.078 7.547,-7.547 c 4.164,-4.156 4.164,-10.906 0,-15.077"
     id="path5" /><path
     style="opacity:0.1"
     d="m 314.161,122.435 -42.156,13.625 49.812,-6.203 z m 75.264,75.265 -13.625,42.155 6.203,-49.811 z"
     id="path6" /><path
     style="opacity:0.1;fill:#ffffff"
     d="m 124.211,479.123 26.984,-13.499 a 10.8,10.8 0 0 0 2.773,-2 L 373.331,244.246 a 10.4,10.4 0 0 0 2.609,-4.25 l 13.625,-42.14 43.437,-43.437 C 510.626,76.795 511.97,13.406 512.001,10.75 A 10.73,10.73 0 0 0 508.876,3.125 10.7,10.7 0 0 0 501.251,0 c -0.375,0.016 -1.969,0.031 -4.641,0.312 -1.625,16.219 -12.047,72.374 -78.686,139.014 l -43.438,43.437 -13.625,42.14 a 10.84,10.84 0 0 1 -2.609,4.266 l -219.37,219.378 a 10.7,10.7 0 0 1 -2.773,1.999 l -26.984,13.484 -13.492,26.999 a 10.65,10.65 0 0 1 -7.836,5.75 10.68,10.68 0 0 1 -9.25,-2.984 l 15.086,15.078 a 10.64,10.64 0 0 0 9.25,3 10.74,10.74 0 0 0 7.836,-5.766 z"
     id="path7" /></g><path
   id="path1-5"
   style="fill:none;fill-opacity:1;stroke:#000000;stroke-width:0.999998;stroke-opacity:1"
   d="m 457.46035,-1405.8136 c -0.0341,-4e-4 -0.18239,-0.01 -0.41104,-0.028 -0.0224,-0 -0.0179,-3e-4 -0.0422,-0 -8e-5,-8e-4 -2.9e-4,-0 -3.9e-4,-0 -1.55673,-0.1528 -7.03895,-1.1448 -13.57694,-7.6814 l -4.2403,-4.2419 -4.1169,-1.3306 c -0.15633,-0.051 -0.29847,-0.1386 -0.41504,-0.2548 l -21.42333,-21.4241 c -0.0789,-0.079 -0.14479,-0.1703 -0.19531,-0.2701 l -1.31762,-2.635 -2.63524,-1.3184 c -0.084,-0.042 -0.16199,-0.095 -0.23175,-0.1581 -0.14031,-0.1265 -0.24356,-0.2888 -0.2987,-0.4694 -0.0137,-0.045 -0.0243,-0.091 -0.0318,-0.137 -0.015,-0.093 -0.0174,-0.1871 -0.007,-0.2806 v -10e-5 c 0.0258,-0.2356 0.13126,-0.4552 0.29889,-0.6226 l 7.38691,-7.3869 c -0.008,0.01 -0.015,0.014 -0.0223,0.022 l 1.47345,-1.4725 c 0.0331,-0.033 0.0684,-0.064 0.10567,-0.093 h 2e-4 c 0.0747,-0.057 0.15685,-0.1039 0.24414,-0.1389 0.0873,-0.035 0.17891,-0.058 0.27238,-0.068 0.0467,-0.01 0.0938,-0.01 0.14076,-0.01 0.047,10e-4 0.0938,0.01 0.14019,0.013 0.23374,0.039 0.44746,0.1556 0.60636,0.3313 0.0315,0.035 0.0607,0.072 0.0872,0.1107 0.0266,0.039 0.0505,0.079 0.0717,0.1211 l 1.31742,2.6352 2.63524,1.3182 c 0.0667,0.034 0.12957,0.074 0.18769,0.1208 0.029,0.023 0.0568,0.048 0.0832,0.075 l 21.42257,21.4241 c 0.0584,0.058 0.10967,0.1221 0.15259,0.192 0.043,0.07 0.0773,0.1448 0.10224,0.223 l 1.33059,4.1154 4.24164,4.2416 1.9e-4,2e-4 c 2.84267,2.8427 4.63787,5.49 5.77155,7.7022 v 2e-4 c 1.13367,2.2123 1.6059,3.9896 1.80267,5.0925 0.13118,0.7353 0.14,1.1708 0.14076,1.2356 10e-4,0.2316 -0.0743,0.457 -0.21477,0.6411 -0.0278,0.036 -0.058,0.071 -0.0904,0.1036 -0.19752,0.197 -0.46564,0.3069 -0.74464,0.3051 z"
   inkscape:label="bullat"
   sodipodi:nodetypes="scccccccccccsssssccccssssscsscccsccscccsssscscss" /></g></svg>
