<?xml version="1.0" encoding="UTF-8" standalone="no"?>
<!-- Created with Inkscape (http://www.inkscape.org/) -->

<svg
   width="480"
   height="480"
   viewBox="0 0 127 127"
   version="1.1"
   id="svg1"
   inkscape:version="1.4.2 (ebf0e940, 2025-05-08)"
   xml:space="preserve"
   sodipodi:docname="drops.svg"
   xmlns:inkscape="http://www.inkscape.org/namespaces/inkscape"
   xmlns:sodipodi="http://sodipodi.sourceforge.net/DTD/sodipodi-0.dtd"
   xmlns="http://www.w3.org/2000/svg"
   xmlns:svg="http://www.w3.org/2000/svg"><sodipodi:namedview
     id="namedview1"
     pagecolor="#ffffff"
     bordercolor="#000000"
     borderopacity="0.25"
     inkscape:showpageshadow="2"
     inkscape:pageopacity="0.0"
     inkscape:pagecheckerboard="0"
     inkscape:deskcolor="#d1d1d1"
     inkscape:document-units="px"
     showguides="false"
     inkscape:zoom="0.24137892"
     inkscape:cx="-683.57255"
     inkscape:cy="406.00066"
     inkscape:window-width="1728"
     inkscape:window-height="1051"
     inkscape:window-x="0"
     inkscape:window-y="38"
     inkscape:window-maximized="1"
     inkscape:current-layer="layer1" /><defs
     id="defs1" /><g
     inkscape:label="Layer 1"
     inkscape:groupmode="layer"
     id="layer1"><g
       id="g5"
       inkscape:label="drop-agility"><rect
         style="fill:#ffffff;fill-opacity:1;stroke:#000000;stroke-width:4.23334;stroke-linecap:round;stroke-dasharray:none;stroke-opacity:1"
         id="rect3-6"
         width="122.76667"
         height="122.76666"
         x="-317.76459"
         y="105.30417"
         rx="8.4666662"
         ry="8.4666662"
         inkscape:label="background"
         inkscape:export-filename="drop-agility.png"
         inkscape:export-xdpi="96"
         inkscape:export-ydpi="96" /><g
         id="g1"
         transform="matrix(0.11575521,0,0,0.11575521,-315.57783,107.42083)"
         style="stroke-width:1.78571"><path
           d="M 293.63932,301.8594 C 313.93366,285.62394 445.471,186.55753 462.4581,186.55753 c 16.98711,0 165.36123,33.82389 165.36123,33.82389 l 126.5765,84.33422 56.22282,151.83168 c 0,0 56.22282,8.41839 104.02725,11.27462 47.80442,2.85624 67.49744,14.13087 67.49744,39.38604 0,25.25517 -14.13087,45.09852 -53.5169,45.09852 -39.38604,0 -151.83168,-5.56215 -165.36123,-22.54926 C 749.73565,512.77013 690.05528,409.49453 690.05528,409.49453 L 586.02804,569.89492 c 0,0 95.60885,64.64121 129.43274,84.78521 a 73.209925,73.209925 0 0 1 28.11141,90.19703 c -11.27463,28.11141 -64.64121,177.23717 -90.19703,230.60375 -25.55583,53.36659 -67.49745,56.22279 -92.75262,39.38599 -25.25517,-16.83673 -25.25517,-45.09847 -11.27463,-81.62827 13.98054,-36.52979 73.20993,-205.34857 73.20993,-205.34857 0,0 -157.54415,-104.02725 -180.39407,-123.72027 -22.84991,-19.69302 -14.13087,-61.93529 -8.41839,-87.19046 5.71248,-25.25517 130.03406,-210.15909 130.03406,-210.15909 L 459.75219,284.27098 a 903.17296,903.17296 0 0 1 -78.77207,47.80443 c -42.24228,22.54926 -80.72635,49.00706 -103.27561,20.89565 -11.57528,-13.67989 2.55559,-40.28801 15.93481,-51.11166 z"
           fill="#daaaab"
           id="path1"
           style="stroke-width:1.78571" /><path
           d="m 375.26764,588.8363 -61.9353,99.81805 h -188.5118 c -30.065674,0 -49.157379,30.06567 -49.157379,54.86986 a 46.301144,46.301144 0 0 0 47.804429,50.66066 H 359.78381 L 452.53643,668.96133 A 126.27585,126.27585 0 0 1 375.26764,588.8363 Z"
           fill="#daaaab"
           id="path2"
           style="stroke-width:1.78571" /><path
           d="m 780.25232,151.38069 m -92.75262,0 a 92.752616,92.752616 0 1 0 185.50523,0 92.752616,92.752616 0 1 0 -185.50523,0 z"
           fill="#daaaab"
           id="path3"
           style="stroke-width:1.78571" /><path
           d="M 573.0998,998.33083 A 71.255656,71.255656 0 0 1 533.56343,986.30456 C 488.46492,956.23888 509.0599,902.27099 515.97501,884.68257 527.5503,854.61689 570.69454,731.79859 584.52475,692.26223 547.99496,668.05936 433.44472,591.69254 413.60138,574.40477 382.78406,547.49599 394.20902,495.6327 399.77117,470.82851 c 5.56215,-24.80418 79.67404,-136.19752 118.00778,-193.3223 l -72.60861,-15.03284 c -12.32693,8.26806 -41.49064,27.20943 -74.26222,45.09851 l -14.2812,7.66675 c -38.18341,20.89565 -81.32766,45.09852 -110.19071,8.71905 a 43.144247,43.144247 0 0 1 -3.90854,-43.89589 78.020434,78.020434 0 0 1 22.54926,-31.56896 c 1.50328,-1.20263 151.982,-119.06009 179.34177,-119.06009 17.43809,0 134.24325,26.15714 169.72075,34.12455 a 16.836779,16.836779 0 0 1 5.56215,2.40525 l 126.5765,84.33423 a 16.836779,16.836779 0 0 1 6.46412,8.11773 l 52.76527,142.51131 c 18.0394,2.55558 57.87642,7.66675 92.75261,9.62102 24.95451,1.50328 83.43226,4.96084 83.43226,56.22282 0,38.78472 -26.30747,61.93529 -70.35369,61.93529 -6.31379,0 -155.43955,0 -178.89078,-28.56239 -10.67332,-12.77791 -42.39261,-66.89613 -61.03333,-99.36707 l -79.9747,123.26928 c 27.66042,18.64072 90.19703,60.13136 114.85089,75.1642 a 90.197033,90.197033 0 0 1 35.17684,110.49136 c -3.00657,7.66675 -9.32036,24.3532 -17.28776,45.09852 -21.64729,58.32741 -54.56921,146.41985 -73.20993,185.80589 a 94.406228,94.406228 0 0 1 -58.92873,55.6215 71.255656,71.255656 0 0 1 -18.94137,2.1046 z M 442.01344,226.39455 h 3.60788 l 104.02725,22.54926 a 16.836779,16.836779 0 0 1 10.37266,26.00681 c -59.22939,87.3408 -122.8183,187.00852 -126.87716,202.49234 -4.05887,15.48382 -12.62759,56.97446 3.15689,70.80467 15.78449,13.83021 135.29555,93.65459 178.28947,122.36731 a 16.836779,16.836779 0 0 1 6.61445,19.69302 c -2.40525,6.91511 -59.37971,169.42009 -73.36025,205.79956 -15.03284,40.88932 -6.31379,53.96789 4.81051,61.48431 a 37.431769,37.431769 0 0 0 30.06568,4.96084 63.889565,63.889565 0 0 0 37.43176,-37.5821 c 18.03941,-38.03308 51.8633,-128.98175 72.0073,-183.09997 8.11773,-21.64729 15.03284,-38.78473 17.58842,-46.6018 A 56.072489,56.072489 0 0 0 688.70233,626.41839 C 654.87844,606.27439 562.42648,543.73778 558.51794,541.1822 a 16.836779,16.836779 0 0 1 -4.66018,-23.15057 L 657.88501,357.63124 a 16.536123,16.536123 0 0 1 15.03284,-7.66675 16.836779,16.836779 0 0 1 14.13087,8.56872 c 22.2486,39.08538 60.13135,105.22987 70.955,117.85745 13.37922,9.0197 96.36049,16.98711 153.48528,16.98711 32.17027,0 36.5298,-14.2812 36.5298,-28.11141 0,-7.21576 0,-19.54269 -51.56264,-22.54926 -47.95475,-2.85624 -103.2756,-11.1243 -105.22987,-11.42495 A 16.836779,16.836779 0 0 1 777.84706,420.4685 L 723.42819,273.74799 604.06745,194.07395 C 535.81836,179.04111 460.50384,162.80564 446.22264,161.45269 425.17666,168.96911 316.33891,249.24447 286.72422,272.99635 a 45.098516,45.098516 0 0 0 -12.1766,17.4381 13.98054,13.98054 0 0 0 -1.20263,10.67331 c 9.92168,12.47726 29.16371,3.90854 67.49745,-17.28776 l 15.03284,-7.96741 a 895.20555,895.20555 0 0 0 77.11846,-46.75213 16.836779,16.836779 0 0 1 9.0197,-2.70591 z"
           fill="#892127"
           id="path4"
           style="stroke-width:1.78571" /><path
           d="M 341.74441,769.38069 H 105.42818 A 63.288251,63.288251 0 0 1 40.786975,701.88324 70.203357,70.203357 0 0 1 106.93147,630.1766 h 179.04111 l 56.97446,-91.85064 a 16.836779,16.836779 0 0 1 30.06567,3.30722 109.13841,109.13841 0 0 0 65.99417,69.45172 16.836779,16.836779 0 0 1 9.0197,26.30747 l -92.75262,125.22354 a 16.836779,16.836779 0 0 1 -13.52955,6.76478 z M 106.93147,664.15082 c -19.99368,0 -32.320607,22.09827 -32.320607,38.03308 a 30.065678,30.065678 0 0 0 30.967647,33.82389 h 227.74751 l 75.16419,-101.47166 a 144.46558,144.46558 0 0 1 -53.36657,-51.71297 l -45.09852,73.36025 a 16.836779,16.836779 0 0 1 -15.03284,7.96741 H 106.48048 Z M 762.36324,219.47945 A 109.73972,109.73972 0 1 1 872.10296,109.73972 109.89005,109.89005 0 0 1 762.36324,219.47945 Z m 0,-185.655563 a 75.915836,75.915836 0 1 0 75.91584,75.915833 76.066164,76.066164 0 0 0 -75.91584,-75.915833 z"
           fill="#892127"
           id="path5"
           style="stroke-width:1.78571" /></g></g><g
       id="g6"
       inkscape:label="drop-strength"><rect
         style="fill:#ffffff;fill-opacity:1;stroke:#000000;stroke-width:4.23334;stroke-linecap:round;stroke-dasharray:none;stroke-opacity:1"
         id="rect3"
         width="122.76667"
         height="122.76666"
         x="2.1166649"
         y="2.1166687"
         rx="8.4666662"
         ry="8.4666662"
         inkscape:label="background"
         inkscape:export-filename="drop-strength.png"
         inkscape:export-xdpi="96"
         inkscape:export-ydpi="96" /><g
         id="g2"
         transform="matrix(0.11582205,0,0,0.11582205,4.2063832,4.1648913)"
         style="stroke-width:1.78468"><path
           d="m 650.56431,118.48367 c 0,0 25.08876,-95.013544 -28.00229,-97.117762 C 569.47098,19.26169 502.45972,18.614238 444.51279,46.454664 386.56586,74.29509 341.08237,183.39071 341.08237,183.39071 c 0,0 -103.43042,89.34835 -120.1023,206.86084 A 784.38781,784.38781 0 0 0 210.7827,566.35843 c 0,0 -35.12426,80.12216 -1.2949,114.59896 33.82935,34.47681 109.25748,54.06223 109.25748,54.06223 0,0 90.31952,74.45695 190.0271,70.7341 a 495.94805,495.94805 0 0 0 190.99827,-53.09104 c 0,0 107.15326,160.24431 159.27313,162.99598 52.11987,2.75167 40.95133,-59.56556 40.95133,-59.56556 l 0.97117,-323.72589 c 0,0 0.80932,-75.42813 -66.20194,-104.40159 a 125.44378,125.44378 0 0 0 -117.35063,6.47451 c 0,0 -60.53674,-52.11986 -131.27085,-33.50562 a 434.44013,434.44013 0 0 0 -127.548,59.56556 187.92287,187.92287 0 0 0 7.4457,-69.92479 c -3.72285,-36.2573 -46.61653,-97.11777 -16.18629,-162.99598 30.43023,-65.87822 71.70528,-43.703 71.70528,-43.703 a 55.195263,55.195263 0 0 0 40.95132,24.27944 108.28631,108.28631 0 0 0 51.31056,-17.64306 c 0,0 47.42584,13.1109 56.81389,-18.61424 9.38805,-31.72513 3.39912,-41.43691 -20.07101,-53.41477 z"
           fill="#daaaab"
           id="path1-3"
           style="stroke-width:1.78468" /><path
           d="m 857.74888,1023.945 h -4.69403 c -10.84481,0 -69.60106,-11.816 -180.63904,-173.67897 A 553.08567,553.08567 0 0 1 469.60154,903.19521 C 364.22877,907.40365 270.02454,838.45003 250.92471,823.55864 232.95793,818.54089 161.73823,796.6894 125.80466,760.10837 84.853334,718.34773 112.5319,639.19675 121.2725,617.34526 A 946.73634,946.73634 0 0 1 133.08849,424.08091 C 150.73155,300.74135 248.17304,206.21339 268.24405,187.76101 278.11769,165.1002 325.70539,61.669781 389.80312,31.239548 457.1381,-1.13304 531.75692,-1.13304 595.85464,1.780492 a 52.767319,52.767319 0 0 1 41.27505,21.689634 c 19.58542,27.031111 14.72953,72.190872 10.35923,95.661004 24.27944,16.18629 28.64974,36.58102 18.12865,72.35273 -10.52109,35.77171 -45.64535,41.76064 -77.69421,35.77171 a 128.19545,128.19545 0 0 1 -59.72743,18.12865 77.04676,77.04676 0 0 1 -57.13762,-29.94464 26.383659,26.383659 0 0 0 -15.21512,0.80931 70.572242,70.572242 0 0 0 -33.99121,39.33269 c -20.71846,44.51231 -6.15079,86.75854 6.79824,123.98702 a 210.42182,210.42182 0 0 1 12.30158,45.32162 199.90073,199.90073 0 0 1 0,39.00897 476.03891,476.03891 0 0 1 107.96259,-44.51231 c 68.1443,-17.96679 127.06241,16.18629 151.01812,32.37259 a 159.27313,159.27313 0 0 1 135.15556,-1.78049 c 84.65431,36.41916 84.65431,129.49035 84.49245,132.72761 l -0.97118,355.28915 a 88.862755,88.862755 0 0 1 -16.18629,67.82056 57.946933,57.946933 0 0 1 -44.67417,18.1287 z M 679.69964,805.75372 a 19.423553,19.423553 0 0 1 16.1863,8.57874 c 54.06222,80.93147 130.62339,169.14677 160.08245,170.7654 a 20.556594,20.556594 0 0 0 18.7761,-5.50334 53.738497,53.738497 0 0 0 6.15079,-37.22848 20.556594,20.556594 0 0 1 0,-3.39912 l 1.13304,-356.09847 c 0,-2.91353 0,-70.7341 -61.02233,-97.11776 a 118.15995,118.15995 0 0 0 -110.39053,5.34147 19.585416,19.585416 0 0 1 -23.79385,-1.2949 c 0,0 -60.21301,-50.33937 -126.90054,-32.37259 a 459.52889,459.52889 0 0 0 -134.02252,62.4791 19.423553,19.423553 0 0 1 -29.78278,-21.8515 188.57033,188.57033 0 0 0 7.28383,-68.79175 191.64572,191.64572 0 0 0 -10.35923,-36.41916 C 379.28202,353.18494 360.66779,298.63713 387.6989,239.88088 a 103.75414,103.75414 0 0 1 57.78507,-60.05115 63.126547,63.126547 0 0 1 48.55888,3.07539 19.423553,19.423553 0 0 1 6.96011,6.47452 41.598776,41.598776 0 0 0 28.8116,17.80493 98.412668,98.412668 0 0 0 45.48349,-16.1863 19.423553,19.423553 0 0 1 16.18629,-2.58981 c 0,0 34.15308,8.41688 38.68524,-7.28383 7.28383,-24.76503 6.63638,-25.08875 -11.81599,-34.63867 a 19.423553,19.423553 0 0 1 -9.87364,-22.17522 c 6.15079,-23.30826 9.87364,-62.640959 -0.97118,-77.53235 A 14.082076,14.082076 0 0 0 595.53091,40.951324 C 536.28908,37.875928 467.65919,38.52338 408.09363,66.687532 360.66779,89.186481 316.80293,175.78315 304.01576,207.18457 a 19.585416,19.585416 0 0 1 -5.17962,7.28383 c -1.13304,0.97118 -108.44817,95.33727 -125.60564,215.60143 -17.96679,125.28192 -11.33041,188.08474 -11.16854,188.73219 a 19.585416,19.585416 0 0 1 -1.45677,9.87364 c -8.57874,19.74728 -28.00229,80.93147 -5.34148,104.72533 27.5167,28.00229 89.67207,48.55888 111.19984,54.22408 a 19.423553,19.423553 0 0 1 7.4457,3.72285 c 0.97118,0 94.68982,77.20862 196.01602,73.48578 a 529.45368,529.45368 0 0 0 201.51936,-56.16644 19.423553,19.423553 0 0 1 7.4457,-3.0754 z"
           fill="#892127"
           id="path2-8"
           style="stroke-width:1.78468" /></g></g><g
       id="g4"
       inkscape:label="drop-endurance"><rect
         style="fill:#ffffff;fill-opacity:1;stroke:#000000;stroke-width:4.23334;stroke-linecap:round;stroke-dasharray:none;stroke-opacity:1"
         id="rect3-6-4"
         width="122.76667"
         height="122.76666"
         x="-619.85425"
         y="171.97917"
         rx="8.4666662"
         ry="8.4666662"
         inkscape:label="background"
         inkscape:export-filename="drop-endurance.png"
         inkscape:export-xdpi="96"
         inkscape:export-ydpi="96" /><g
         id="g3"
         transform="matrix(0.08000504,0,0,0.08000504,-617.73757,192.37691)"
         style="stroke-width:1.78279"><path
           d="M 1291.686,476.99719 C 1275.9587,422.14347 1125.015,98.007866 1028.158,98.007867 c -96.85714,10e-7 -164.36941,78.636453 -164.36941,197.741903 0,119.10545 195.63211,159.76624 195.63211,159.76624 v 50.05882 c 0,0 -127.92804,9.58981 -204.45473,-71.53999 -76.52669,-81.1298 -58.49785,-304.95599 -58.49785,-304.95599 l -53.70294,2.30156 -53.70294,-2.30156 c 0,0 18.02884,224.01798 -58.49785,304.95599 -76.52669,80.938 -204.45476,71.53999 -204.45476,71.53999 v -50.05882 c 0,0 195.63214,-40.469 195.63214,-159.76624 0,-119.29725 -67.51227,-197.741903 -164.36936,-197.741903 -96.85709,0 -247.80071,324.135603 -263.528,378.989323 -15.72729,54.85372 -237.251922,533.38531 105.10432,533.38531 342.35625,0 333.34183,-431.34972 333.34183,-431.34972 0,0 -115.07773,83.43135 -128.31167,66.74508 -13.23394,-16.68627 9.01442,-47.75726 76.71849,-107.21408 67.70406,-59.45683 161.876,-40.46901 161.876,-40.46901 0,0 94.36374,-19.17962 161.87601,40.46901 67.51227,59.64862 90.14422,90.52781 76.71849,107.21408 -13.42574,16.68627 -128.31167,-66.74508 -128.31167,-66.74508 0,0 -9.39802,431.34972 332.95819,431.34972 342.3563,0 121.5988,-478.53159 105.8716,-533.38531 z"
           fill="#daaaab"
           id="path1-4"
           style="stroke-width:1.78279" /><path
           d="M 1245.0795,1024 C 1135.7556,1024 1045.995,988.90129 978.29093,919.85465 840.58125,779.07623 844.03358,548.15359 844.03358,538.37198 a 23.015546,23.015546 0 0 1 36.05769,-19.17962 877.0841,877.0841 0 0 0 103.76175,62.14197 547.5782,547.5782 0 0 0 -72.88256,-68.85484 C 844.03358,456.66679 747.36829,474.12025 746.40931,474.12025 a 23.015546,23.015546 0 0 1 -8.63083,0 c 0,0 -97.43248,-17.45346 -164.56115,38.35924 a 546.42742,546.42742 0 0 0 -72.88257,68.85484 877.46769,877.46769 0 0 0 103.76176,-62.14197 23.015546,23.015546 0 0 1 36.05768,19.17962 c 0,9.78161 3.64413,240.51246 -134.25735,381.48267 C 438.19279,989.09309 348.43216,1024 239.10832,1024 144.74458,1024 77.040512,994.84698 38.105881,937.49991 -53.57271,803.24255 43.667971,557.93519 85.28775,453.59805 91.041636,439.21334 95.644746,427.70556 97.179115,422.52706 112.13922,373.61903 287.24917,0.575389 417.86239,0.575389 c 123.32497,0 209.44147,95.898108 209.44147,234.950361 0,122.55779 -164.94475,174.91815 -221.71643,189.30287 v 12.65855 c 41.23619,-1.15078 133.29837,-10.74059 191.79622,-70.00562 65.01892,-65.01892 65.21071,-244.92377 59.64862,-308.600112 A 23.015546,23.015546 0 0 1 680.815,33.94793 l 60.03222,2.493351 60.03221,-2.493351 a 23.015546,23.015546 0 0 1 23.78273,24.933508 c -5.37029,63.868142 -5.17849,243.772992 59.64863,308.600112 59.64862,59.64862 151.32721,69.04664 191.79621,70.19742 V 425.02042 C 1018.5681,410.6357 854.39058,358.27533 854.39058,235.71755 c 0,-138.285072 86.1165,-234.950365 209.44142,-234.950365 130.6133,0 305.915,373.427235 320.6833,421.951675 1.7262,5.37029 6.1375,16.68627 11.8914,31.07099 41.428,104.33714 138.6687,348.87732 47.1819,483.90185 C 1407.1473,994.84698 1339.4432,1024 1245.0795,1024 Z M 891.98264,582.8687 c 5.75388,70.9646 28.76943,212.12662 119.29726,304.3806 58.6896,59.84042 137.3261,90.33602 233.7996,90.33602 78.2528,0 133.1065,-22.24837 163.0268,-66.3615 78.061,-115.07773 -16.3027,-351.94605 -51.785,-441.13129 -6.3293,-15.91909 -10.9324,-27.61866 -13.0422,-34.71512 A 1336.0524,1336.0524 0 0 0 1230.8866,215.77074 C 1164.3333,109.13205 1102.9585,45.6475 1066.5172,45.6475 c -97.81608,0 -163.41038,76.71849 -163.41038,188.91927 0,88.99345 146.72408,137.32609 203.11218,148.45027 a 23.015546,23.015546 0 0 1 19.1796,22.63196 v 53.70294 a 23.015546,23.015546 0 0 1 -21.2893,23.01554 c -6.3293,0 -156.69756,9.78161 -249.33513,-83.23955 C 778.05568,322.40944 778.05568,146.72411 780.16544,79.979022 l -35.67409,1.53437 h -1.91797 l -35.67409,-1.53437 c 2.68515,66.745078 1.91796,242.622218 -74.60873,319.148908 -93.21296,93.21296 -243.3894,83.81494 -249.33508,83.23955 A 23.015546,23.015546 0 0 1 361.6661,459.35194 V 405.649 a 23.015546,23.015546 0 0 1 19.17962,-22.63196 c 56.57988,-11.12418 203.11219,-59.45682 203.11219,-148.45027 0,-112.96797 -65.5943,-188.91927 -163.41037,-188.91927 -36.44128,0 -97.81607,63.67634 -164.36936,170.12324 A 1333.5591,1333.5591 0 0 0 143.7856,435.37741 c -2.10976,7.09646 -6.71287,19.17962 -13.23394,34.71512 -35.482303,89.18524 -129.846042,326.05357 -51.784982,441.1313 29.920212,44.11312 84.773932,66.36149 163.026782,66.36149 95.89811,0 175.10995,-30.30381 233.79959,-90.33602 90.52781,-92.44578 113.54336,-233.99139 119.29725,-304.76419 -112.58438,72.11538 -128.31167,53.70294 -138.09328,42.38696 a 40.277205,40.277205 0 0 1 -9.58981,-30.112 c 2.30156,-27.23507 29.15303,-59.07324 99.15864,-117.37929 76.71849,-63.29275 176.06893,-52.36036 198.31729,-49.09983 22.24836,-3.26053 122.36599,-14.19292 198.31729,49.09983 70.00557,57.53887 96.85707,90.14423 99.15867,117.37929 a 40.085409,40.085409 0 0 1 -9.5898,30.112 c -25.1253,27.04327 -88.0345,-7.48005 -140.39487,-41.61978 z"
           fill="#892127"
           id="path2-83"
           style="stroke-width:1.78279" /></g></g></g></svg>
