<?xml version="1.0" encoding="UTF-8" standalone="no"?>
<!-- Created with Inkscape (http://www.inkscape.org/) -->

<svg
   width="140"
   height="140"
   viewBox="0 0 37.041666 37.041666"
   version="1.1"
   id="svg1"
   xml:space="preserve"
   xmlns="http://www.w3.org/2000/svg"
   xmlns:svg="http://www.w3.org/2000/svg"><defs
     id="defs1"><clipPath
       clipPathUnits="userSpaceOnUse"
       id="clipPath72811"><path
         id="lpe_path-effect72811"
         style="fill:#ffffff;stroke-linecap:round;stroke-linejoin:round;paint-order:stroke fill markers"
         class="powerclip"
         d="M 7.6969952,9.2550174 H 94.744497 V 91.586479 H 7.6969952 Z M 23.617187,70.710937 c -0.263445,-0.03074 -0.528313,0.04443 -0.736328,0.208985 -0.432956,0.342557 -0.506395,0.971164 -0.164062,1.404297 0,0 8.550534,10.793794 21.851562,8.033203 0.541138,-0.112459 0.888426,-0.642576 0.775391,-1.183594 C 45.231259,78.633618 44.702459,78.28662 44.162109,78.398437 32.04317,80.91369 24.285156,71.083984 24.285156,71.083984 24.120751,70.876009 23.88049,70.741828 23.617187,70.710937 Z" /></clipPath></defs><g
     id="layer1"><ellipse
       style="fill:#8c8c8c;fill-opacity:1;stroke:#545454;stroke-width:5.1552;stroke-linecap:round;stroke-linejoin:round;stroke-dasharray:none;stroke-opacity:1;paint-order:stroke fill markers"
       id="path1"
       cx="18.520834"
       cy="18.520834"
       rx="15.943233"
       ry="15.943235" /><g
       id="g2"
       transform="matrix(0.33011739,0,0,0.32465621,2.0149639,2.288023)"
       style="stroke:#ffffff;stroke-opacity:1"><path
         style="display:inline;fill:#ffffff;fill-opacity:1;stroke:#ffffff;stroke-width:1.04242;stroke-opacity:1"
         d="m 47.969741,23.253493 c -10.153612,0.08404 -19.611841,8.033932 -23.076463,17.213098 -0.882174,2.337228 -1.618954,4.987643 -1.639781,7.503145 h -5.825972 c -0.937235,0 -1.989236,-0.133314 -2.912986,0.02902 -1.10079,0.19344 -1.772318,1.385887 -1.54313,2.442606 0.303112,1.397568 1.485265,1.588901 2.69067,1.588901 h 7.591418 c 0.006,2.176599 0.610781,4.480509 1.294661,6.53215 2.5176,7.552799 8.470721,13.733195 15.918438,16.54431 2.330294,0.879566 4.993395,1.632871 7.503145,1.639783 v 5.825972 c 0,0.93723 -0.133319,1.989241 0.02901,2.912986 0.193449,1.100795 1.385887,1.772314 2.442609,1.543127 1.397568,-0.303108 1.588902,-1.485263 1.588902,-2.690667 v -7.591418 c 2.507226,-0.0069 5.17533,-0.761154 7.503145,-1.639783 9.176699,-3.463706 17.129082,-12.925851 17.213099,-23.07646 h 5.825972 c 0.937225,0 1.989241,0.133314 2.912986,-0.02902 1.100796,-0.193446 1.772314,-1.385887 1.543127,-2.442606 -0.303118,-1.397573 -1.485258,-1.588901 -2.690667,-1.588901 H 76.746511 C 76.667166,38.383463 69.480651,29.329422 61.034042,25.521602 58.291566,24.285267 55.06987,23.261882 52.030267,23.253493 v -5.825971 c 0,-0.937221 0.133314,-1.989246 -0.02902,-2.912986 -0.193446,-1.100796 -1.385887,-1.772315 -2.442605,-1.543128 -1.397569,0.303118 -1.588902,1.485253 -1.588902,2.690668 v 7.591417 m 0,4.148798 v 9.268591 c 0,1.216858 0.176534,2.664925 1.677174,2.894188 1.111078,0.169746 2.224818,-0.608612 2.367006,-1.746648 0.142871,-1.143553 0.01635,-2.378374 0.01635,-3.530892 v -6.885239 c 2.165613,0.0059 4.450063,0.705521 6.443878,1.500629 5.76224,2.297914 10.358612,6.962396 12.658217,12.711211 0.783546,1.958789 1.459484,4.228196 1.465351,6.355605 h -9.268592 c -1.216853,0 -2.664924,0.176528 -2.894188,1.677173 -0.169745,1.111076 0.608612,2.224819 1.746648,2.367006 1.143554,0.142877 2.378375,0.01635 3.530892,0.01635 h 6.88524 c -0.0054,1.95052 -0.5926,4.010506 -1.263941,5.825971 -2.213866,5.986784 -6.921651,10.872816 -12.859627,13.240845 -1.993805,0.795119 -4.278271,1.494665 -6.443878,1.500629 v -6.885239 c 0,-1.152518 0.126525,-2.38735 -0.01635,-3.530892 -0.142188,-1.138036 -1.255923,-1.916399 -2.367006,-1.746648 -1.50064,0.229264 -1.677174,1.67733 -1.677174,2.894188 V 72.59771 C 45.804132,72.59181 43.519663,71.8922 41.525862,71.097081 35.586893,68.728654 30.88056,63.844309 28.666235,57.856231 27.99393,56.038159 27.407682,53.98336 27.402293,52.03026 h 6.88524 c 1.152518,0 2.387346,0.126525 3.530891,-0.01635 1.138033,-0.142187 1.916397,-1.255925 1.746648,-2.367006 -0.229265,-1.50064 -1.677329,-1.677173 -2.894187,-1.677173 h -9.268592 c 0.0059,-2.16314 0.704321,-4.453177 1.50063,-6.443878 2.305219,-5.762843 6.956923,-10.356419 12.711211,-12.658217 1.960626,-0.784278 4.226451,-1.459478 6.355605,-1.46535"
         id="path72820" /><circle
         style="fill:none;fill-opacity:1;stroke:#ffffff;stroke-width:5;stroke-linecap:round;stroke-linejoin:round;stroke-dasharray:none;stroke-opacity:1;paint-order:stroke fill markers"
         id="path72819"
         cx="50"
         cy="50"
         r="16.498993" /><circle
         style="display:inline;fill:none;fill-opacity:1;stroke:#ffffff;stroke-width:6.10919429;stroke-linecap:round;stroke-linejoin:round;stroke-dasharray:none;stroke-opacity:1;paint-order:stroke fill markers"
         id="path72819-8"
         cx="50"
         cy="50"
         r="25.469574" /><circle
         style="fill:#ffffff;fill-opacity:1;stroke:#ffffff;stroke-width:1.63747;stroke-linecap:round;stroke-linejoin:round;stroke-dasharray:none;stroke-opacity:1;paint-order:stroke fill markers"
         id="path72819-7"
         cx="-50"
         cy="-50"
         r="6.0689173"
         transform="scale(-1)" /></g></g></svg>
