<?xml version="1.0" encoding="UTF-8" standalone="no"?>
<!-- Created with Inkscape (http://www.inkscape.org/) -->

<svg
   width="140"
   height="140"
   viewBox="0 0 37.041666 37.041666"
   version="1.1"
   id="svg1"
   xml:space="preserve"
   inkscape:version="1.4 (e7c3feb1, 2024-10-09)"
   sodipodi:docname="gray_heart.svg"
   xmlns:inkscape="http://www.inkscape.org/namespaces/inkscape"
   xmlns:sodipodi="http://sodipodi.sourceforge.net/DTD/sodipodi-0.dtd"
   xmlns="http://www.w3.org/2000/svg"
   xmlns:svg="http://www.w3.org/2000/svg"><sodipodi:namedview
     id="namedview1"
     pagecolor="#ffffff"
     bordercolor="#000000"
     borderopacity="0.25"
     inkscape:showpageshadow="2"
     inkscape:pageopacity="0.0"
     inkscape:pagecheckerboard="0"
     inkscape:deskcolor="#d1d1d1"
     inkscape:document-units="mm"
     inkscape:zoom="2.0938024"
     inkscape:cx="105.7884"
     inkscape:cy="122.0268"
     inkscape:window-width="1272"
     inkscape:window-height="954"
     inkscape:window-x="0"
     inkscape:window-y="53"
     inkscape:window-maximized="0"
     inkscape:current-layer="layer1" /><defs
     id="defs1"><clipPath
       clipPathUnits="userSpaceOnUse"
       id="clipPath72811"><path
         id="lpe_path-effect72811"
         style="fill:#ffffff;stroke-linecap:round;stroke-linejoin:round;paint-order:stroke fill markers"
         class="powerclip"
         d="M 7.6969952,9.2550174 H 94.744497 V 91.586479 H 7.6969952 Z M 23.617187,70.710937 c -0.263445,-0.03074 -0.528313,0.04443 -0.736328,0.208985 -0.432956,0.342557 -0.506395,0.971164 -0.164062,1.404297 0,0 8.550534,10.793794 21.851562,8.033203 0.541138,-0.112459 0.888426,-0.642576 0.775391,-1.183594 C 45.231259,78.633618 44.702459,78.28662 44.162109,78.398437 32.04317,80.91369 24.285156,71.083984 24.285156,71.083984 24.120751,70.876009 23.88049,70.741828 23.617187,70.710937 Z" /></clipPath><clipPath
       clipPathUnits="userSpaceOnUse"
       id="clipPath72811-7"><path
         id="lpe_path-effect72811-1"
         style="fill:#ffffff;stroke-linecap:round;stroke-linejoin:round;paint-order:stroke fill markers"
         class="powerclip"
         d="M 7.6969952,9.2550174 H 94.744497 V 91.586479 H 7.6969952 Z M 23.617187,70.710937 c -0.263445,-0.03074 -0.528313,0.04443 -0.736328,0.208985 -0.432956,0.342557 -0.506395,0.971164 -0.164062,1.404297 0,0 8.550534,10.793794 21.851562,8.033203 0.541138,-0.112459 0.888426,-0.642576 0.775391,-1.183594 C 45.231259,78.633618 44.702459,78.28662 44.162109,78.398437 32.04317,80.91369 24.285156,71.083984 24.285156,71.083984 24.120751,70.876009 23.88049,70.741828 23.617187,70.710937 Z" /></clipPath><clipPath
       clipPathUnits="userSpaceOnUse"
       id="clipPath72811-8"><path
         id="lpe_path-effect72811-9"
         style="fill:#ffffff;stroke-linecap:round;stroke-linejoin:round;paint-order:stroke fill markers"
         class="powerclip"
         d="M 7.6969952,9.2550174 H 94.744497 V 91.586479 H 7.6969952 Z M 23.617187,70.710937 c -0.263445,-0.03074 -0.528313,0.04443 -0.736328,0.208985 -0.432956,0.342557 -0.506395,0.971164 -0.164062,1.404297 0,0 8.550534,10.793794 21.851562,8.033203 0.541138,-0.112459 0.888426,-0.642576 0.775391,-1.183594 C 45.231259,78.633618 44.702459,78.28662 44.162109,78.398437 32.04317,80.91369 24.285156,71.083984 24.285156,71.083984 24.120751,70.876009 23.88049,70.741828 23.617187,70.710937 Z" /></clipPath></defs><g
     inkscape:label="Layer 1"
     inkscape:groupmode="layer"
     id="layer1"><ellipse
       style="fill:#8c8c8c;fill-opacity:1;stroke:#545454;stroke-width:5.1552;stroke-linecap:round;stroke-linejoin:round;stroke-dasharray:none;stroke-opacity:1;paint-order:stroke fill markers"
       id="path1"
       cx="18.520834"
       cy="18.520834"
       rx="15.943233"
       ry="15.943235" /><path
       style="fill:#ffffff;fill-opacity:1;stroke:#ffffff;stroke-width:1.48479;stroke-dasharray:none;stroke-opacity:1"
       d="m 17.492943,12.382533 c -2.225071,-2.5348987 -6.382435,-2.6261889 -8.4890705,0.10707 -0.3689344,0.478675 -0.6349966,1.033313 -0.793773,1.606055 -0.863381,3.114417 1.4546508,5.969499 3.4221635,8.208732 0.460546,0.524151 0.9369,1.034714 1.425786,1.534678 0.632734,0.647068 1.261916,1.300884 1.91741,1.927268 0.805363,0.769596 1.641806,1.511862 2.476942,2.251672 0.318136,0.281824 0.672793,0.746798 1.163424,0.698466 0.372413,-0.03668 0.605403,-0.331019 0.863186,-0.55284 0.552251,-0.475202 1.069084,-0.983633 1.613784,-1.46616 2.388518,-2.115889 4.820887,-4.517975 6.537286,-7.176914 1.513433,-2.344525 2.144842,-5.301311 0.02405,-7.530619 -2.229955,-2.3440754 -6.081474,-1.876993 -8.097032,0.428282 -0.362783,0.414925 -1.027369,1.383351 -1.027369,1.383351 0,0 -0.663188,-0.993406 -1.036799,-1.419043 z"
       id="path2"
       sodipodi:nodetypes="ssssssssssssscs" /></g></svg>
