<?xml version="1.0" encoding="UTF-8" standalone="no"?>
<!-- Created with Inkscape (http://www.inkscape.org/) -->

<svg
   width="140"
   height="140"
   viewBox="0 0 37.041666 37.041666"
   version="1.1"
   id="svg1"
   xml:space="preserve"
   inkscape:version="1.4 (e7c3feb1, 2024-10-09)"
   sodipodi:docname="gray_speed.svg"
   xmlns:inkscape="http://www.inkscape.org/namespaces/inkscape"
   xmlns:sodipodi="http://sodipodi.sourceforge.net/DTD/sodipodi-0.dtd"
   xmlns="http://www.w3.org/2000/svg"
   xmlns:svg="http://www.w3.org/2000/svg"><sodipodi:namedview
     id="namedview1"
     pagecolor="#ffffff"
     bordercolor="#000000"
     borderopacity="0.25"
     inkscape:showpageshadow="2"
     inkscape:pageopacity="0.0"
     inkscape:pagecheckerboard="0"
     inkscape:deskcolor="#d1d1d1"
     inkscape:document-units="mm"
     inkscape:zoom="2.0938024"
     inkscape:cx="105.7884"
     inkscape:cy="122.0268"
     inkscape:window-width="1272"
     inkscape:window-height="954"
     inkscape:window-x="0"
     inkscape:window-y="53"
     inkscape:window-maximized="0"
     inkscape:current-layer="layer1" /><defs
     id="defs1"><clipPath
       clipPathUnits="userSpaceOnUse"
       id="clipPath72811"><path
         id="lpe_path-effect72811"
         style="fill:#ffffff;stroke-linecap:round;stroke-linejoin:round;paint-order:stroke fill markers"
         class="powerclip"
         d="M 7.6969952,9.2550174 H 94.744497 V 91.586479 H 7.6969952 Z M 23.617187,70.710937 c -0.263445,-0.03074 -0.528313,0.04443 -0.736328,0.208985 -0.432956,0.342557 -0.506395,0.971164 -0.164062,1.404297 0,0 8.550534,10.793794 21.851562,8.033203 0.541138,-0.112459 0.888426,-0.642576 0.775391,-1.183594 C 45.231259,78.633618 44.702459,78.28662 44.162109,78.398437 32.04317,80.91369 24.285156,71.083984 24.285156,71.083984 24.120751,70.876009 23.88049,70.741828 23.617187,70.710937 Z" /></clipPath><clipPath
       clipPathUnits="userSpaceOnUse"
       id="clipPath72811-7"><path
         id="lpe_path-effect72811-1"
         style="fill:#ffffff;stroke-linecap:round;stroke-linejoin:round;paint-order:stroke fill markers"
         class="powerclip"
         d="M 7.6969952,9.2550174 H 94.744497 V 91.586479 H 7.6969952 Z M 23.617187,70.710937 c -0.263445,-0.03074 -0.528313,0.04443 -0.736328,0.208985 -0.432956,0.342557 -0.506395,0.971164 -0.164062,1.404297 0,0 8.550534,10.793794 21.851562,8.033203 0.541138,-0.112459 0.888426,-0.642576 0.775391,-1.183594 C 45.231259,78.633618 44.702459,78.28662 44.162109,78.398437 32.04317,80.91369 24.285156,71.083984 24.285156,71.083984 24.120751,70.876009 23.88049,70.741828 23.617187,70.710937 Z" /></clipPath><clipPath
       clipPathUnits="userSpaceOnUse"
       id="clipPath72811-8"><path
         id="lpe_path-effect72811-9"
         style="fill:#ffffff;stroke-linecap:round;stroke-linejoin:round;paint-order:stroke fill markers"
         class="powerclip"
         d="M 7.6969952,9.2550174 H 94.744497 V 91.586479 H 7.6969952 Z M 23.617187,70.710937 c -0.263445,-0.03074 -0.528313,0.04443 -0.736328,0.208985 -0.432956,0.342557 -0.506395,0.971164 -0.164062,1.404297 0,0 8.550534,10.793794 21.851562,8.033203 0.541138,-0.112459 0.888426,-0.642576 0.775391,-1.183594 C 45.231259,78.633618 44.702459,78.28662 44.162109,78.398437 32.04317,80.91369 24.285156,71.083984 24.285156,71.083984 24.120751,70.876009 23.88049,70.741828 23.617187,70.710937 Z" /></clipPath></defs><g
     inkscape:label="Layer 1"
     inkscape:groupmode="layer"
     id="layer1"><ellipse
       style="fill:#8c8c8c;fill-opacity:1;stroke:#545454;stroke-width:5.1552;stroke-linecap:round;stroke-linejoin:round;stroke-dasharray:none;stroke-opacity:1;paint-order:stroke fill markers"
       id="path1"
       cx="18.520834"
       cy="18.520834"
       rx="15.943233"
       ry="15.943235" /><g
       id="g76208"
       transform="matrix(0.30850962,0,0,0.30850962,3.4274217,2.2611568)"><g
         id="g76181"><path
           style="fill:#ffffff;stroke:none"
           d="m 45.910971,60.189176 c -0.515461,-0.322896 -4.055011,5.418947 -5.87782,8.042841 -0.670726,0.965499 -1.326368,2.411549 -2.618933,2.503526 -4.591651,0.326737 -8.695081,-0.454441 -12.710918,-0.710606 -1.905561,-0.121563 -3.9684,0.42107 -4.51462,2.582964 -0.530673,2.10036 0.805724,3.798657 2.812407,4.270496 1.476283,0.347123 15.070497,1.18405 16.994294,0.932791 5.281511,-2.181857 11.964945,-13.832577 11.024152,-14.421908 z"
           id="path76204"
           sodipodi:nodetypes="sssssssss" /><path
           style="fill:#ffffff;stroke:none"
           d="m 55.81981,38.320297 c -1.581742,3.670742 -3.783592,7.23684 -5.724194,10.735591 -1.035916,1.867678 -2.547018,3.821549 -2.644095,6.022404 -0.0775,1.757057 0.419823,3.193957 1.826237,4.312742 2.018856,1.605982 4.588061,2.64861 6.803896,3.962407 2.863543,1.697837 5.990516,4.074127 9.164527,5.078879 -1.229561,4.268104 -4.103525,8.339586 -6.087057,12.306652 -0.864908,1.729808 -2.320283,3.752704 -1.503983,5.760361 0.956914,2.353485 4.216343,2.830042 5.933709,1.012623 1.233142,-1.304983 1.888878,-3.352731 2.695816,-4.940078 1.827496,-3.594901 3.711551,-7.164263 5.585393,-10.735591 0.945316,-1.801661 1.853862,-4.017871 0.849981,-6.022404 -0.929154,-1.85532 -2.88583,-2.676394 -4.593579,-3.629645 -3.116609,-1.739669 -6.129113,-3.892991 -9.426371,-5.27304 l 6.546091,-12.306653 c 3.133314,2.207397 5.583823,8.406219 9.950059,8.091496 3.889794,-0.280383 7.526902,-7.135248 9.790042,-9.924401 0.917907,-1.131255 2.196017,-2.425522 2.417203,-3.927655 0.477468,-3.242645 -3.276194,-4.844352 -5.660147,-3.032418 -2.924102,2.222479 -4.356755,6.079011 -7.332629,8.269291 -2.337711,-5.042736 -9.081802,-11.411675 -14.663244,-12.429895 -3.736714,-0.681687 -12.978968,-2.131138 -16.933768,1.699155 -1.471636,1.716619 -2.362007,4.049371 -3.453668,6.017554 -1.324946,2.388772 -3.281332,4.951273 -4.01918,7.593466 -0.637936,2.28442 1.061866,4.504818 3.459124,4.416187 1.973249,-0.07295 3.093284,-1.813899 3.963821,-3.368812 1.55713,-2.78127 2.904561,-6.778533 5.105748,-9.081288 1.387029,-1.451032 6.051634,-0.606928 7.950268,-0.606928 z"
           id="path76192"
           sodipodi:nodetypes="csssscsssssssccsssscsssssssc" /><path
           style="fill:#ffffff;stroke:#ffffff;stroke-opacity:1"
           d="m 68.911992,20.113676 c -8.14546,0.810246 -7.373498,13.34274 0.785531,12.658609 8.146599,-0.683089 7.3926,-13.472108 -0.785531,-12.658609 z"
           id="path76186"
           sodipodi:nodetypes="sss" /><rect
           style="fill:#ffffff;fill-opacity:1;stroke:#ffffff;stroke-width:4.95961;stroke-linecap:round;stroke-linejoin:round;stroke-dasharray:none;stroke-opacity:1;paint-order:stroke fill markers"
           id="rect76208"
           width="12.643867"
           height="0.1923916"
           x="20.756432"
           y="57.766373" /><rect
           style="fill:#ffffff;fill-opacity:1;stroke:#ffffff;stroke-width:5;stroke-linecap:round;stroke-linejoin:round;stroke-dasharray:none;stroke-opacity:1;paint-order:stroke fill markers"
           id="rect76208-9"
           width="16.264732"
           height="0.15200685"
           x="12.902305"
           y="46.754826" /><rect
           style="fill:#ffffff;fill-opacity:1;stroke:#ffffff;stroke-width:5;stroke-linecap:round;stroke-linejoin:round;stroke-dasharray:none;stroke-opacity:1;paint-order:stroke fill markers"
           id="rect76208-9-2"
           width="16.264732"
           height="0.15200685"
           x="17.83057"
           y="35.723083" /><rect
           style="fill:#ffffff;fill-opacity:1;stroke:#ffffff;stroke-width:5.03258;stroke-linecap:round;stroke-linejoin:round;stroke-dasharray:none;stroke-opacity:1;paint-order:stroke fill markers"
           id="rect76208-9-2-1"
           width="20.97238"
           height="0.11942732"
           x="28.646612"
           y="25.181652" /></g></g></g></svg>
