<?xml version="1.0" encoding="UTF-8" standalone="no"?>
<!-- Created with Inkscape (http://www.inkscape.org/) -->

<svg
   width="140"
   height="140"
   viewBox="0 0 37.041666 37.041666"
   version="1.1"
   id="svg1"
   xml:space="preserve"
   xmlns="http://www.w3.org/2000/svg"
   xmlns:svg="http://www.w3.org/2000/svg"><defs
     id="defs1"><clipPath
       clipPathUnits="userSpaceOnUse"
       id="clipPath72811"><path
         id="lpe_path-effect72811"
         style="fill:#ffffff;stroke-linecap:round;stroke-linejoin:round;paint-order:stroke fill markers"
         class="powerclip"
         d="M 7.6969952,9.2550174 H 94.744497 V 91.586479 H 7.6969952 Z M 23.617187,70.710937 c -0.263445,-0.03074 -0.528313,0.04443 -0.736328,0.208985 -0.432956,0.342557 -0.506395,0.971164 -0.164062,1.404297 0,0 8.550534,10.793794 21.851562,8.033203 0.541138,-0.112459 0.888426,-0.642576 0.775391,-1.183594 C 45.231259,78.633618 44.702459,78.28662 44.162109,78.398437 32.04317,80.91369 24.285156,71.083984 24.285156,71.083984 24.120751,70.876009 23.88049,70.741828 23.617187,70.710937 Z" /></clipPath></defs><g
     id="layer1"><ellipse
       style="fill:#d76965;fill-opacity:1;stroke:#884659;stroke-width:5.1552;stroke-linecap:round;stroke-linejoin:round;stroke-dasharray:none;stroke-opacity:1;paint-order:stroke fill markers"
       id="path1"
       cx="18.520834"
       cy="18.520834"
       rx="15.943233"
       ry="15.943235" /><path
       id="path72817"
       style="display:inline;fill:#ffffff;fill-opacity:1;stroke-width:0.278953;stroke-linecap:round;stroke-linejoin:round;paint-order:stroke fill markers"
       d="m 28.019688,9.2253667 c -0.03256,-0.00295 -0.06538,-2.13e-4 -0.09698,0.00812 L 25.50421,9.8676663 23.085709,10.501849 c -0.208554,0.05418 -0.279572,0.314273 -0.127492,0.466921 l 1.313586,1.327751 c -0.785332,0.588365 -1.465276,1.34856 -2.196211,2.034398 l -6.997257,6.56575 -3.374134,-7.578591 c 2.952385,-0.421301 6.654717,-0.991594 9.079598,1.212792 l 1.987541,-1.864954 c -2.745046,-2.9094377 -6.794857,-2.475023 -10.367036,-2.170058 -0.336734,0.02875 -0.699722,0.0856 -1.035178,0.02234 -0.364252,-0.06869 -0.610436,-0.398657 -0.991591,-0.470189 -0.793049,-0.1488327 -1.625928,0.550061 -1.60834,1.359352 0.0219,1.007764 0.961473,1.050602 1.345731,1.766886 1.090787,2.033302 1.885204,4.260571 2.851098,6.356536 0.251449,0.545637 0.486261,1.097593 0.7377,1.643209 0.08939,0.193962 0.293041,0.48439 0.240816,0.706645 -0.08944,0.380591 -1.188286,1.325742 -1.564753,1.367524 -0.45295,0.05027 -1.022078,-0.150185 -1.450339,0.03106 -0.629729,0.266499 -1.263561,1.138523 -1.762527,1.606705 l 1.724389,0.09534 0.716997,0.105146 0.05993,0.72299 0.02398,1.767974 c 0.48751,-0.45743 1.376249,-1.021498 1.668816,-1.623593 0.216006,-0.444537 0.04749,-1.043697 0.131304,-1.520078 0.06634,-0.376997 1.04269,-1.365332 1.428545,-1.441077 0.243854,-0.04786 0.546658,0.19618 0.750232,0.306196 0.577707,0.312212 1.146258,0.639671 1.723843,0.951818 1.997482,1.079502 3.978669,2.187514 5.974611,3.270073 0.680566,0.369128 0.859056,1.225461 1.71785,1.344096 0.777212,0.107364 1.544368,-0.589655 1.538056,-1.369704 -0.0034,-0.423332 -0.280747,-0.656598 -0.390099,-1.028639 -0.09972,-0.339261 -0.0036,-0.755834 0.04577,-1.097833 0.228452,-1.584349 0.641586,-3.115497 0.608031,-4.731853 -0.04728,-2.277431 -0.938377,-4.073344 -2.134101,-5.939195 l -2.028404,1.903637 c 2.330021,2.707782 1.015433,6.268961 0.705555,9.381435 -2.447346,-1.345381 -5.101762,-2.539333 -7.42168,-4.092221 l 7.701178,-7.226086 c 0.441472,-0.414233 1.040097,-0.8692 1.528794,-1.389317 l 1.23513,1.248206 c 0.151051,0.152738 0.410807,0.08462 0.467465,-0.122587 l 0.659789,-2.41196 0.65979,-2.4114202 c 0.03601,-0.130741 -0.0272,-0.2684424 -0.149828,-0.3263526 -0.02933,-0.013885 -0.06086,-0.022552 -0.09317,-0.025609 z" /></g></svg>
