<?xml version="1.0" encoding="UTF-8" standalone="no"?>
<!-- Created with Inkscape (http://www.inkscape.org/) -->

<svg
   width="140"
   height="140"
   viewBox="0 0 37.041666 37.041666"
   version="1.1"
   id="svg1"
   xml:space="preserve"
   inkscape:version="1.4 (e7c3feb1, 2024-10-09)"
   sodipodi:docname="red_arm.svg"
   xmlns:inkscape="http://www.inkscape.org/namespaces/inkscape"
   xmlns:sodipodi="http://sodipodi.sourceforge.net/DTD/sodipodi-0.dtd"
   xmlns="http://www.w3.org/2000/svg"
   xmlns:svg="http://www.w3.org/2000/svg"><sodipodi:namedview
     id="namedview1"
     pagecolor="#ffffff"
     bordercolor="#000000"
     borderopacity="0.25"
     inkscape:showpageshadow="2"
     inkscape:pageopacity="0.0"
     inkscape:pagecheckerboard="0"
     inkscape:deskcolor="#d1d1d1"
     inkscape:document-units="mm"
     inkscape:zoom="2.0938024"
     inkscape:cx="105.7884"
     inkscape:cy="122.0268"
     inkscape:window-width="1272"
     inkscape:window-height="954"
     inkscape:window-x="0"
     inkscape:window-y="53"
     inkscape:window-maximized="0"
     inkscape:current-layer="layer1" /><defs
     id="defs1"><clipPath
       clipPathUnits="userSpaceOnUse"
       id="clipPath72811"><path
         id="lpe_path-effect72811"
         style="fill:#ffffff;stroke-linecap:round;stroke-linejoin:round;paint-order:stroke fill markers"
         class="powerclip"
         d="M 7.6969952,9.2550174 H 94.744497 V 91.586479 H 7.6969952 Z M 23.617187,70.710937 c -0.263445,-0.03074 -0.528313,0.04443 -0.736328,0.208985 -0.432956,0.342557 -0.506395,0.971164 -0.164062,1.404297 0,0 8.550534,10.793794 21.851562,8.033203 0.541138,-0.112459 0.888426,-0.642576 0.775391,-1.183594 C 45.231259,78.633618 44.702459,78.28662 44.162109,78.398437 32.04317,80.91369 24.285156,71.083984 24.285156,71.083984 24.120751,70.876009 23.88049,70.741828 23.617187,70.710937 Z" /></clipPath></defs><g
     inkscape:label="Layer 1"
     inkscape:groupmode="layer"
     id="layer1"><ellipse
       style="fill:#d76965;fill-opacity:1;stroke:#884659;stroke-width:5.1552;stroke-linecap:round;stroke-linejoin:round;stroke-dasharray:none;stroke-opacity:1;paint-order:stroke fill markers"
       id="path1"
       cx="18.520834"
       cy="18.520834"
       rx="15.943233"
       ry="15.943235" /><path
       style="color:#000000;font-style:normal;font-variant:normal;font-weight:normal;font-stretch:normal;font-size:medium;line-height:normal;font-family:sans-serif;font-variant-ligatures:normal;font-variant-position:normal;font-variant-caps:normal;font-variant-numeric:normal;font-variant-alternates:normal;font-variant-east-asian:normal;font-feature-settings:normal;font-variation-settings:normal;text-indent:0;text-align:start;text-decoration-line:none;text-decoration-style:solid;text-decoration-color:#000000;letter-spacing:normal;word-spacing:normal;text-transform:none;writing-mode:lr-tb;direction:ltr;text-orientation:mixed;dominant-baseline:auto;baseline-shift:baseline;text-anchor:start;white-space:normal;shape-padding:0;shape-margin:0;inline-size:0;clip-rule:nonzero;display:inline;overflow:visible;visibility:visible;isolation:auto;mix-blend-mode:normal;color-interpolation:sRGB;color-interpolation-filters:linearRGB;solid-color:#000000;solid-opacity:1;vector-effect:none;fill:#ffffff;fill-opacity:1;fill-rule:nonzero;stroke:none;stroke-linecap:butt;stroke-linejoin:miter;stroke-miterlimit:4;stroke-dasharray:none;stroke-dashoffset:0;stroke-opacity:1;-inkscape-stroke:none;color-rendering:auto;image-rendering:auto;shape-rendering:auto;text-rendering:auto;enable-background:accumulate;stop-color:#000000"
       d="m 86.275121,85.862742 c 0.854337,-0.450468 3.077824,-3.127021 3.469376,-8.119303 L 89.59825,52.845236 c 0.04379,-3.836362 -1.948483,-6.565753 -3.323129,-6.978147 -7.495054,0 -18.70484,-1.071985 -22.742433,5.640412 l 8.991195,3.076589 v 1.02553 C 67.412658,56.92835 60.290329,51.847919 54.0126,52.042424 c -9.773426,0.302811 -14.286532,6.246301 -22.213539,10.233138 0.06818,-3.580677 4.013766,-4.549786 5.730907,-7.325496 2.788592,-4.507684 3.337896,-11.688218 4.649451,-16.774449 0.430773,-1.670546 0.661139,-5.192584 2.473474,-6.043975 1.704253,-0.800616 4.148284,0.854372 5.657451,1.500707 4.387338,1.878978 7.084066,3.121593 11.106769,-0.07162 v -0.512765 c -3.013369,-2.931825 -6.789016,-6.805324 -0.802592,-8.470049 0.06044,2.530958 0.434704,10.029348 4.803982,5.740846 2.753692,-2.702785 -1.567579,-13.950909 -4.643328,-15.631024 -1.517099,-0.828713 -3.545378,-0.237135 -5.175893,-0.0993 -4.48697,0.379301 -12.003826,0.0041 -15.846001,2.431283 -3.80008,2.400612 -6.551674,7.416875 -9.208303,10.900602 -7.851061,10.295363 -19.121353,25.875147 -17.730592,39.482888 0.369454,3.614875 3.253021,6.283426 5.762738,8.71661 6.898493,6.688115 16.518156,10.901384 26.444282,9.523336 5.211596,-0.723524 13.593198,-3.533642 16.395707,-3.808148 3.686808,-0.361123 7.464366,2.716215 11.10677,3.566796 4.747728,1.108708 8.167479,1.624496 13.190653,0.725006"
       id="path72807"
       sodipodi:nodetypes="cccccccscsssscccssscssssssc"
       clip-path="url(#clipPath72811)"
       transform="matrix(0.29293548,0,0,0.30075269,2.9872928,2.2983243)" /></g></svg>
