<?xml version="1.0" encoding="UTF-8" standalone="no"?>
<!-- Created with Inkscape (http://www.inkscape.org/) -->

<svg
   width="128"
   height="128"
   viewBox="0 0 33.866666 33.866667"
   version="1.1"
   id="svg1"
   inkscape:version="1.4.2 (ebf0e940, 2025-05-08)"
   xml:space="preserve"
   sodipodi:docname="keyboard-wasd.svg"
   xmlns:inkscape="http://www.inkscape.org/namespaces/inkscape"
   xmlns:sodipodi="http://sodipodi.sourceforge.net/DTD/sodipodi-0.dtd"
   xmlns="http://www.w3.org/2000/svg"
   xmlns:svg="http://www.w3.org/2000/svg"><sodipodi:namedview
     id="namedview1"
     pagecolor="#000000"
     bordercolor="#000000"
     borderopacity="0.25"
     inkscape:showpageshadow="2"
     inkscape:pageopacity="0.0"
     inkscape:pagecheckerboard="true"
     inkscape:deskcolor="#d1d1d1"
     inkscape:document-units="px"
     showguides="true"
     inkscape:zoom="2.8334811"
     inkscape:cx="70.937477"
     inkscape:cy="60.702716"
     inkscape:window-width="1728"
     inkscape:window-height="1051"
     inkscape:window-x="961"
     inkscape:window-y="238"
     inkscape:window-maximized="0"
     inkscape:current-layer="layer1" /><defs
     id="defs1" /><g
     inkscape:label="Layer 1"
     inkscape:groupmode="layer"
     id="layer1"
     transform="translate(-73.642753,-81.127697)"><g
       id="g1"
       transform="matrix(1.9999987,0,0,1.9999987,-68.880156,-72.660921)"
       style="stroke-width:0.5"><path
         stroke="none"
         fill="#ffffff"
         d="m 78.934423,81.127701 h 1.5875 c 0.70555,0 1.05833,0.352777 1.05833,1.05833 v 1.5875 c 0,0.70556 -0.35278,1.05834 -1.05833,1.05834 h -1.5875 c -0.70555,0 -1.05833,-0.35278 -1.05833,-1.05834 v -1.5875 c 0,-0.705553 0.35278,-1.05833 1.05833,-1.05833 m 4.23333,4.23333 h 1.5875 c 0.70556,0 1.05834,0.35278 1.05834,1.05834 v 1.587502 c 0,0.70555 -0.35278,1.058329 -1.05834,1.058329 h -1.5875 c -0.70555,0 -1.05833,-0.352779 -1.05833,-1.058329 v -1.587502 c 0,-0.70556 0.35278,-1.05834 1.05833,-1.05834 m -4.23333,0 h 1.5875 c 0.70555,0 1.05833,0.35278 1.05833,1.05834 v 1.587502 c 0,0.70555 -0.35278,1.058329 -1.05833,1.058329 h -1.5875 c -0.70555,0 -1.05833,-0.352779 -1.05833,-1.058329 v -1.587502 c 0,-0.70556 0.35278,-1.05834 1.05833,-1.05834 m -4.23333,0 1.5875,7.9e-5 c 0.70555,3.5e-5 1.05833,0.352701 1.05833,1.058261 v 1.587502 c 0,0.70555 -0.35278,1.058329 -1.05833,1.058329 h -1.5875 c -0.70556,0 -1.05834,-0.352779 -1.05834,-1.058329 v -1.587502 c 0,-0.70556 0.35278,-1.05834 1.05834,-1.05834"
         id="path1-8"
         style="fill:#ffffff;fill-opacity:0;stroke-width:0.132292"
         sodipodi:nodetypes="csssssssccsssssssccsssssssccsssssssc" /><path
         stroke="none"
         fill="#ffffff"
         d="m 78.493443,81.127697 h 2.46944 q 0.61737,0 0.61737,0.617362 v 2.469443 q 0,0.617362 -0.61737,0.617362 h -2.46944 q -0.61736,0 -0.61736,-0.617362 v -2.469443 q 0,-0.617362 0.61736,-0.617362 m 1.15755,1.080383 -0.23151,0.694531 -0.23151,-0.694531 h -0.30868 v 0.154338 l 0.46302,1.389063 h 0.15434 l 0.23151,-0.694531 0.23151,0.694531 h 0.15434 l 0.46302,-1.389063 V 82.20808 h -0.30868 l -0.23151,0.694531 -0.23151,-0.694531 h -0.15434"
         id="path1"
         style="stroke-width:0.132292" /><path
         stroke="none"
         fill="#ffffff"
         d="m 79.882513,87.058778 h -0.30868 q -0.0617,0 -0.10804,-0.0463 -0.0463,-0.0463 -0.0463,-0.108039 0,-0.06173 0.0424,-0.104177 l 0.008,-0.0077 q 0.0424,-0.04244 0.10418,-0.04244 h 0.31254 q 0.0579,0 0.10032,0.04244 l 0.008,0.0077 q 0.0424,0.04244 0.0424,0.104177 l 0.29711,-0.115754 -0.0116,-0.03858 q -0.0347,-0.0926 -0.1119,-0.169777 l -0.004,-0.0038 q -0.13119,-0.131188 -0.31254,-0.135047 h -0.32026 q -0.18906,0 -0.32411,0.135047 l -0.004,0.0038 q -0.13505,0.135048 -0.13505,0.324115 0,0.192926 0.13505,0.327973 0.13505,0.135048 0.32797,0.135048 h 0.30869 q 0.0617,0 0.10803,0.0463 0.0463,0.0463 0.0463,0.10804 0,0.0617 -0.0424,0.10418 l -0.008,0.008 q -0.0424,0.0424 -0.10418,0.0424 h -0.31254 q -0.0579,0 -0.10032,-0.0424 l -0.008,-0.008 q -0.0425,-0.0424 -0.0425,-0.10418 l -0.29325,0.11961 0.0116,0.0347 q 0.0309,0.0926 0.10804,0.16978 l 0.004,0.004 q 0.13119,0.13118 0.31254,0.13504 h 0.32026 q 0.18906,0 0.32411,-0.13504 l 0.004,-0.004 q 0.13505,-0.13505 0.13505,-0.32412 0,-0.192924 -0.13505,-0.327971 -0.13505,-0.135048 -0.32797,-0.135048 m -1.38896,-1.697748 h 2.46944 q 0.61736,0 0.61736,0.617359 v 2.469448 q 0,0.617358 -0.61736,0.617358 h -2.46944 q -0.61737,0 -0.61737,-0.617358 v -2.469448 q 0,-0.617359 0.61737,-0.617359"
         id="path1-5"
         style="stroke-width:0.132292" /><path
         stroke="none"
         fill="#ffffff"
         d="m 82.726783,85.361031 h 2.46944 q 0.61736,0 0.61736,0.617359 v 2.469443 q 0,0.617359 -0.61736,0.617359 h -2.46944 q -0.61737,0 -0.61737,-0.617359 V 85.97839 q 0,-0.617359 0.61737,-0.617359 m 0.92604,1.389063 h 0.16591 q 0.18135,0.0038 0.3164,0.138906 0.13505,0.135047 0.13505,0.324115 0,0.189068 -0.13505,0.327968 -0.13505,0.13119 -0.3164,0.13505 h -0.16591 v -0.926039 m -0.30868,-0.308683 v 1.543402 h 0.48231 q 0.30868,-0.008 0.52862,-0.22379 l 0.0733,-0.0849 q 0.15048,-0.20064 0.15048,-0.463021 0,-0.26624 -0.15048,-0.463021 l -0.0733,-0.08103 q -0.21994,-0.219934 -0.52862,-0.227652 h -0.48231"
         id="path1-3"
         style="stroke-width:0.132292" /><path
         stroke="none"
         fill="#ffffff"
         d="m 74.260123,85.361036 h 2.46944 q 0.61736,0 0.61736,0.617362 v 2.469445 q 0,0.617359 -0.61736,0.617359 h -2.46944 q -0.61736,0 -0.61736,-0.617359 v -2.469445 q 0,-0.617362 0.61736,-0.617362 m 1.69774,2.623787 h 0.30868 l -0.61736,-1.543404 h -0.30868 l -0.61736,1.543404 h 0.30868 l 0.12347,-0.30868 h 0.6791 l 0.12347,0.30868 m -0.46302,-1.157552 0.21608,0.54019 h -0.43216 l 0.21608,-0.54019"
         id="path1-7"
         style="stroke-width:0.132292" /></g></g></svg>
